<svg width="14" height="15" viewBox="0 0 14 15" fill="none" xmlns="http://www.w3.org/2000/svg">
<path fill-rule="evenodd" clip-rule="evenodd" d="M6.0026 1.44728C7.47398 -0.0240944 9.85955 -0.0240946 11.3309 1.44728C12.8023 2.91866 12.8023 5.30423 11.3309 6.77561L6.88649 11.2201C6.02876 12.0778 4.63811 12.0778 3.78038 11.2201C2.92265 10.3623 2.92265 8.97168 3.78038 8.11395L8.22483 3.66951C8.4689 3.42543 8.86463 3.42543 9.10871 3.66951C9.35279 3.91358 9.35279 4.30931 9.10871 4.55339L4.66426 8.99784C4.29469 9.36741 4.29469 9.9666 4.66426 10.3362C5.03384 10.7057 5.63303 10.7057 6.0026 10.3362L10.4471 5.89173C11.4303 4.90851 11.4303 3.31439 10.447 2.33117C9.46383 1.34794 7.86971 1.34794 6.88649 2.33117L2.44204 6.77562C0.845166 8.37249 0.845167 10.9615 2.44204 12.5584C4.03891 14.1553 6.62795 14.1553 8.22483 12.5584L12.6693 8.11395C12.9133 7.86987 13.3091 7.86987 13.5532 8.11395C13.7972 8.35803 13.7972 8.75376 13.5532 8.99784L9.10871 13.4423C7.02368 15.5273 3.64318 15.5273 1.55816 13.4423C-0.526871 11.3573 -0.526873 7.97676 1.55815 5.89173L6.0026 1.44728Z" fill="#0F1621"/>
</svg>
