<svg width="22" height="22" viewBox="0 0 22 22" fill="none" xmlns="http://www.w3.org/2000/svg">
<path d="M18.7 14.9689C18.4433 15.6564 17.9025 16.1789 17.1967 16.4172C16.2067 16.7472 15.1892 16.9947 14.1625 17.1689C14.0617 17.1872 13.9608 17.2056 13.86 17.2147C13.695 17.2422 13.53 17.2606 13.365 17.2789C13.1633 17.3064 12.9525 17.3247 12.7417 17.3431C12.1642 17.3889 11.5958 17.4164 11.0183 17.4164C10.4317 17.4164 9.84499 17.3889 9.26749 17.3339C9.01999 17.3156 8.78166 17.2881 8.54333 17.2514C8.40583 17.2331 8.26833 17.2147 8.13999 17.1964C8.03916 17.1781 7.93833 17.1689 7.83749 17.1506C6.81999 16.9856 5.81166 16.7381 4.83083 16.4081C4.09749 16.1606 3.53833 15.6381 3.29083 14.9689C3.04333 14.3089 3.13499 13.5389 3.52916 12.8789L4.56499 11.1556C4.78499 10.7797 4.98666 10.0556 4.98666 9.61557V7.91057C4.98666 4.58307 7.69083 1.87891 11.0183 1.87891C14.3367 1.87891 17.0408 4.58307 17.0408 7.91057V9.61557C17.0408 10.0556 17.2425 10.7797 17.4717 11.1556L18.5075 12.8789C18.8833 13.5206 18.9567 14.2722 18.7 14.9689Z" fill="url(#paint0_linear_967_4069)"/>
<path d="M11 9.86391C10.615 9.86391 10.3033 9.55224 10.3033 9.16724V6.32557C10.3033 5.94057 10.615 5.62891 11 5.62891C11.385 5.62891 11.6967 5.94057 11.6967 6.32557V9.16724C11.6875 9.55224 11.3758 9.86391 11 9.86391Z" fill="url(#paint1_linear_967_4069)"/>
<path d="M13.5942 18.3432C13.2092 19.4065 12.1917 20.1673 11 20.1673C10.2758 20.1673 9.56084 19.874 9.05667 19.3515C8.76334 19.0765 8.54334 18.7098 8.41501 18.334C8.53418 18.3523 8.65334 18.3615 8.78167 18.3798C8.99251 18.4073 9.21251 18.4348 9.43251 18.4532C9.95501 18.499 10.4867 18.5265 11.0183 18.5265C11.5408 18.5265 12.0633 18.499 12.5767 18.4532C12.7692 18.4348 12.9617 18.4257 13.145 18.3982C13.2917 18.3798 13.4383 18.3615 13.5942 18.3432Z" fill="url(#paint2_linear_967_4069)"/>
<defs>
<linearGradient id="paint0_linear_967_4069" x1="2.31631" y1="15.0761" x2="3.93023" y2="9.23037" gradientUnits="userSpaceOnUse">
<stop offset="1" stop-color="#031A49"/>
</linearGradient>
<linearGradient id="paint1_linear_967_4069" x1="10.229" y1="9.22602" x2="11.0749" y2="8.22834" gradientUnits="userSpaceOnUse">
<stop offset="1" stop-color="#031A49"/>
</linearGradient>
<linearGradient id="paint2_linear_967_4069" x1="8.13879" y1="19.8912" x2="8.21138" y2="19.156" gradientUnits="userSpaceOnUse">
<stop offset="1" stop-color="#031A49"/>
</linearGradient>
</defs>
</svg>
