<svg width="24" height="24" viewBox="0 0 24 24" fill="none" xmlns="http://www.w3.org/2000/svg">
<path d="M21.058 6.98311V6.97711L21.048 6.96311C20.6824 6.30228 20.1122 5.778 19.423 5.46911L13.423 2.80211C12.9752 2.60356 12.4908 2.50098 12.001 2.50098C11.5112 2.50098 11.0268 2.60356 10.579 2.80211L4.579 5.46911C3.88947 5.77782 3.31885 6.30212 2.953 6.96311L2.943 6.97711V6.98311C2.6555 7.49803 2.5031 8.07738 2.5 8.66711V15.3331C2.49964 16.0104 2.69577 16.6732 3.06461 17.2412C3.43345 17.8092 3.95917 18.258 4.578 18.5331L10.578 21.2001C11.0235 21.397 11.505 21.4992 11.992 21.5001H12.008C12.495 21.4992 12.9765 21.397 13.422 21.2001L19.422 18.5331C20.0408 18.258 20.5665 17.8092 20.9354 17.2412C21.3042 16.6732 21.5004 16.0104 21.5 15.3331V8.66711C21.4972 8.07746 21.3451 7.49812 21.058 6.98311ZM10.984 3.71611C11.3038 3.57386 11.65 3.50035 12 3.50035C12.35 3.50035 12.6962 3.57386 13.016 3.71611L19.016 6.38311C19.321 6.52618 19.5933 6.73041 19.816 6.98311L16.643 8.39311L8.785 4.69311L10.984 3.71611ZM4.984 6.38211L7.576 5.23011L15.433 8.93011L13.02 10.0001C12.6986 10.1396 12.3519 10.2116 12.0015 10.2116C11.6511 10.2116 11.3044 10.1396 10.983 10.0001L4.183 6.97911C4.40632 6.72738 4.67895 6.52418 4.984 6.38211ZM4.984 17.6181C4.54214 17.4216 4.16677 17.1011 3.90337 16.6955C3.63997 16.29 3.49985 15.8167 3.5 15.3331V8.66711C3.50434 8.38488 3.55711 8.10549 3.656 7.84111L10.58 10.9181C10.8741 11.0411 11.1836 11.1232 11.5 11.1621V20.4471C11.3227 20.4119 11.1497 20.3575 10.984 20.2851L4.984 17.6181ZM20.5 15.3331C20.5001 15.8167 20.36 16.29 20.0966 16.6955C19.8332 17.1011 19.4579 17.4216 19.016 17.6181L13.016 20.2841C12.8505 20.3573 12.6775 20.412 12.5 20.4471V11.1621C12.8173 11.1223 13.1277 11.0399 13.423 10.9171L16.13 9.71711V11.8901C16.13 12.0227 16.1827 12.1499 16.2764 12.2437C16.3702 12.3374 16.4974 12.3901 16.63 12.3901C16.7626 12.3901 16.8898 12.3374 16.9836 12.2437C17.0773 12.1499 17.13 12.0227 17.13 11.8901V9.26911L20.344 7.84111C20.4429 8.10549 20.4957 8.38488 20.5 8.66711V15.3331Z" fill="#84818A"/>
</svg>
