<svg width="30" height="30" viewBox="0 0 30 30" fill="none" xmlns="http://www.w3.org/2000/svg">
<path d="M22.5 4.85H20.775V3.75C20.775 3.54446 20.6933 3.34733 20.548 3.20199C20.4027 3.05665 20.2055 2.975 20 2.975C19.7945 2.975 19.5973 3.05665 19.452 3.20199C19.3067 3.34733 19.225 3.54446 19.225 3.75V4.85H10.775V3.75C10.775 3.54446 10.6933 3.34733 10.548 3.20199C10.4027 3.05665 10.2055 2.975 10 2.975C9.79446 2.975 9.59733 3.05665 9.45199 3.20199C9.30665 3.34733 9.225 3.54446 9.225 3.75V4.85H7.5C6.04353 4.85 4.90591 5.23508 4.133 6.008C3.36008 6.78091 2.975 7.91853 2.975 9.375V22.5C2.975 23.9565 3.36008 25.0941 4.133 25.867C4.90591 26.6399 6.04353 27.025 7.5 27.025H22.5C23.9565 27.025 25.0941 26.6399 25.867 25.867C26.6399 25.0941 27.025 23.9565 27.025 22.5V9.375C27.025 7.91853 26.6399 6.78091 25.867 6.008C25.0941 5.23508 23.9565 4.85 22.5 4.85ZM7.5 6.4H9.225V7.5C9.225 7.70554 9.30665 7.90267 9.45199 8.04801C9.59733 8.19335 9.79446 8.275 10 8.275C10.2055 8.275 10.4027 8.19335 10.548 8.04801C10.6933 7.90267 10.775 7.70554 10.775 7.5V6.4H19.225V7.5C19.225 7.70554 19.3067 7.90267 19.452 8.04801C19.5973 8.19335 19.7945 8.275 20 8.275C20.2055 8.275 20.4027 8.19335 20.548 8.04801C20.6933 7.90267 20.775 7.70554 20.775 7.5V6.4H22.5C23.5618 6.4 24.2959 6.63712 24.7669 7.1081C25.2379 7.57907 25.475 8.31318 25.475 9.375V10.475H4.525V9.375C4.525 8.31318 4.76212 7.57907 5.2331 7.1081C5.70407 6.63712 6.43818 6.4 7.5 6.4ZM22.5 25.475H7.5C6.43818 25.475 5.70407 25.2379 5.2331 24.7669C4.76212 24.2959 4.525 23.5618 4.525 22.5V12.025H25.475V22.5C25.475 23.5618 25.2379 24.2959 24.7669 24.7669C24.2959 25.2379 23.5618 25.475 22.5 25.475Z" fill="white" stroke="#84818A" stroke-width="0.3"/>
</svg>
