<svg width="40" height="36" viewBox="0 0 40 36" fill="none" xmlns="http://www.w3.org/2000/svg">
<path fill-rule="evenodd" clip-rule="evenodd" d="M10.3881 3.6634C11.192 2.20235 12.0666 1.22566 13.3643 0.709147C15.7423 -0.236414 24.2591 -0.236414 26.6352 0.709335C27.9322 1.22557 28.807 2.20209 29.6116 3.66285L30.516 5.39715C30.5367 5.43151 30.5557 5.46173 30.5728 5.48773L30.6496 5.59275C31.0617 6.04175 31.7513 6.313 32.2065 6.313C36.5105 6.313 40.0005 9.80219 40.0005 14.105V25.695C40.0005 31.1834 35.5489 35.635 30.0605 35.635H9.94049C4.4507 35.635 0.000488281 31.1841 0.000488281 25.695V14.105C0.000488281 9.80219 3.49044 6.313 7.79449 6.313C8.24804 6.313 8.93865 6.04136 9.35137 5.59275C9.35961 5.58376 9.37038 5.57038 9.38338 5.55267L9.48624 5.39491L10.3881 3.6634ZM26.9838 5.11016C26.4839 4.20249 26.0321 3.69818 25.5258 3.49666L25.2871 3.41733C23.2288 2.83556 16.0693 2.86201 14.4732 3.49666C13.9672 3.69808 13.5159 4.20211 13.0165 5.10961L12.2468 6.5978L12.0574 6.94066C11.8992 7.20372 11.741 7.42577 11.5604 7.62258C10.5475 8.72359 9.04899 9.313 7.79449 9.313L7.4663 9.32406C4.97199 9.49272 3.00049 11.5694 3.00049 14.105V25.695C3.00049 29.5273 6.10766 32.635 9.94049 32.635H30.0605C33.8921 32.635 37.0005 29.5266 37.0005 25.695V14.105C37.0005 11.4592 34.8538 9.313 32.2065 9.313L31.8583 9.29844C30.6812 9.20159 29.3591 8.62333 28.4394 7.62125C28.2611 7.42705 28.1038 7.20657 27.9466 6.94574C27.924 6.90832 27.896 6.85906 27.8638 6.80078L27.6316 6.36528L26.9838 5.11016Z" fill="#FFD24E"/>
<path d="M31.009 11C32.1135 11 33.009 11.8954 33.009 13C33.009 14.0257 32.2369 14.871 31.2422 14.9865L31.009 15C29.8864 15 28.991 14.1046 28.991 13C28.991 11.9743 29.763 11.129 30.7577 11.0135L31.009 11Z" fill="#FFD24E"/>
<path fill-rule="evenodd" clip-rule="evenodd" d="M12.1418 20.2564C12.1418 15.916 15.6594 12.3984 19.9998 12.3984C24.3403 12.3984 27.8578 15.916 27.8578 20.2564C27.8578 24.5969 24.3403 28.1144 19.9998 28.1144C15.6594 28.1144 12.1418 24.5969 12.1418 20.2564ZM24.8578 20.2564C24.8578 17.5729 22.6834 15.3984 19.9998 15.3984C17.3163 15.3984 15.1418 17.5729 15.1418 20.2564C15.1418 22.94 17.3163 25.1144 19.9998 25.1144C22.6834 25.1144 24.8578 22.94 24.8578 20.2564Z" fill="#FFD24E"/>
</svg>
