<svg width="17" height="21" viewBox="0 0 17 21" fill="none" xmlns="http://www.w3.org/2000/svg">
<path fill-rule="evenodd" clip-rule="evenodd" d="M15.9962 17.6709L14.9231 5.23576C14.9001 4.95968 14.674 4.75066 14.4096 4.75066H12.2021C12.1714 2.67616 10.5235 1 8.5 1C6.47649 1 4.82856 2.67616 4.7979 4.75066H2.59044C2.32218 4.75066 2.0999 4.95968 2.0769 5.23576L1.00383 17.6709C1.00383 17.6788 1.00287 17.6867 1.00192 17.6946C1.00096 17.7025 1 17.7103 1 17.7182C1 19.1341 2.26086 20.2857 3.81298 20.2857H13.187C14.7391 20.2857 16 19.1341 16 17.7182C16 17.7025 16 17.6867 15.9962 17.6709ZM8.50002 2.06486C9.9525 2.06486 11.1367 3.26381 11.1674 4.75066H5.83267C5.86333 3.26381 7.04754 2.06486 8.50002 2.06486ZM3.81304 19.2207H13.1871C14.1567 19.2207 14.95 18.5582 14.9653 17.7418L13.9344 5.81934H12.2022V7.43634C12.2022 7.73213 11.9722 7.96877 11.6848 7.96877C11.3974 7.96877 11.1674 7.73213 11.1674 7.43634V5.81934H5.82889V7.43634C5.82889 7.73213 5.59894 7.96877 5.31151 7.96877C5.02408 7.96877 4.79414 7.73213 4.79414 7.43634V5.81934H3.0619L2.03481 17.7418C2.05014 18.5582 2.83962 19.2207 3.81304 19.2207Z" fill="white"/>
<path d="M14.9231 5.23576L14.7736 5.24821L14.7737 5.24865L14.9231 5.23576ZM15.9962 17.6709L15.8467 17.6838L15.8477 17.6952L15.8504 17.7063L15.9962 17.6709ZM12.2021 4.75066L12.0521 4.75287L12.0543 4.90066H12.2021V4.75066ZM4.7979 4.75066V4.90066H4.9457L4.94789 4.75287L4.7979 4.75066ZM2.0769 5.23576L2.22635 5.24865L2.22639 5.24821L2.0769 5.23576ZM1.00383 17.6709L0.853832 17.658V17.6709H1.00383ZM1.00192 17.6946L0.853011 17.6765L0.85301 17.6765L1.00192 17.6946ZM11.1674 4.75066V4.90066H11.3205L11.3173 4.74757L11.1674 4.75066ZM5.83267 4.75066L5.68271 4.74757L5.67955 4.90066H5.83267V4.75066ZM14.9653 17.7418L15.1153 17.7446L15.1154 17.7367L15.1148 17.7288L14.9653 17.7418ZM13.9344 5.81934L14.0838 5.80641L14.072 5.66934H13.9344V5.81934ZM12.2022 5.81934V5.66934H12.0522V5.81934H12.2022ZM11.1674 5.81934H11.3174V5.66934H11.1674V5.81934ZM5.82889 5.81934V5.66934H5.67889V5.81934H5.82889ZM4.79414 5.81934H4.94414V5.66934H4.79414V5.81934ZM3.0619 5.81934V5.66934H2.92426L2.91245 5.80646L3.0619 5.81934ZM2.03481 17.7418L1.88537 17.7289L1.88469 17.7367L1.88484 17.7446L2.03481 17.7418ZM14.7737 5.24865L15.8467 17.6838L16.1456 17.658L15.0725 5.22286L14.7737 5.24865ZM14.4096 4.90066C14.5933 4.90066 14.7569 5.04721 14.7736 5.24821L15.0726 5.22331C15.0433 4.87216 14.7547 4.60066 14.4096 4.60066V4.90066ZM12.2021 4.90066H14.4096V4.60066H12.2021V4.90066ZM8.5 1.15C10.4375 1.15 12.0226 2.75624 12.0521 4.75287L12.3521 4.74844C12.3203 2.59608 10.6095 0.85 8.5 0.85V1.15ZM4.94789 4.75287C4.9774 2.75624 6.56252 1.15 8.5 1.15V0.85C6.39047 0.85 4.67973 2.59608 4.64792 4.74844L4.94789 4.75287ZM2.59044 4.90066H4.7979V4.60066H2.59044V4.90066ZM2.22639 5.24821C2.24319 5.0465 2.40354 4.90066 2.59044 4.90066V4.60066C2.24081 4.60066 1.95661 4.87287 1.92742 5.22331L2.22639 5.24821ZM1.15328 17.6838L2.22635 5.24865L1.92746 5.22286L0.854388 17.658L1.15328 17.6838ZM1.15082 17.7127C1.15159 17.7063 1.15383 17.6894 1.15383 17.6709H0.853832C0.853832 17.6689 0.85395 17.668 0.853852 17.6691C0.853732 17.6704 0.853536 17.6722 0.853011 17.6765L1.15082 17.7127ZM1.15 17.7182C1.15 17.7202 1.14988 17.7211 1.14998 17.72C1.1501 17.7187 1.1503 17.717 1.15082 17.7126L0.85301 17.6765C0.852243 17.6828 0.85 17.6997 0.85 17.7182H1.15ZM3.81298 20.1357C2.33055 20.1357 1.15 19.0387 1.15 17.7182H0.85C0.85 19.2295 2.19117 20.4357 3.81298 20.4357V20.1357ZM13.187 20.1357H3.81298V20.4357H13.187V20.1357ZM15.85 17.7182C15.85 19.0387 14.6695 20.1357 13.187 20.1357V20.4357C14.8088 20.4357 16.15 19.2295 16.15 17.7182H15.85ZM15.8504 17.7063C15.8496 17.7031 15.8497 17.7017 15.8498 17.7037C15.85 17.7063 15.85 17.7096 15.85 17.7182H16.15C16.15 17.7052 16.1507 17.6715 16.1419 17.6355L15.8504 17.7063ZM11.3173 4.74757C11.2851 3.18321 10.0382 1.91486 8.50002 1.91486V2.21486C9.86681 2.21486 10.9883 3.3444 11.0174 4.75375L11.3173 4.74757ZM5.83267 4.90066H11.1674V4.60066H5.83267V4.90066ZM8.50002 1.91486C6.96185 1.91486 5.71496 3.18321 5.68271 4.74757L5.98264 4.75375C6.0117 3.3444 7.13324 2.21486 8.50002 2.21486V1.91486ZM13.1871 19.0707H3.81304V19.3707H13.1871V19.0707ZM14.8153 17.739C14.802 18.4517 14.0987 19.0707 13.1871 19.0707V19.3707C14.2146 19.3707 15.098 18.6646 15.1153 17.7446L14.8153 17.739ZM13.785 5.83226L14.8159 17.7547L15.1148 17.7288L14.0838 5.80641L13.785 5.83226ZM12.2022 5.96934H13.9344V5.66934H12.2022V5.96934ZM12.3522 7.43634V5.81934H12.0522V7.43634H12.3522ZM11.6848 8.11877C12.0591 8.11877 12.3522 7.81089 12.3522 7.43634H12.0522C12.0522 7.65337 11.8853 7.81877 11.6848 7.81877V8.11877ZM11.0174 7.43634C11.0174 7.81089 11.3105 8.11877 11.6848 8.11877V7.81877C11.4842 7.81877 11.3174 7.65337 11.3174 7.43634H11.0174ZM11.0174 5.81934V7.43634H11.3174V5.81934H11.0174ZM5.82889 5.96934H11.1674V5.66934H5.82889V5.96934ZM5.97889 7.43634V5.81934H5.67889V7.43634H5.97889ZM5.31151 8.11877C5.68581 8.11877 5.97889 7.81089 5.97889 7.43634H5.67889C5.67889 7.65337 5.51207 7.81877 5.31151 7.81877V8.11877ZM4.64414 7.43634C4.64414 7.81089 4.93721 8.11877 5.31151 8.11877V7.81877C5.11095 7.81877 4.94414 7.65337 4.94414 7.43634H4.64414ZM4.64414 5.81934V7.43634H4.94414V5.81934H4.64414ZM3.0619 5.96934H4.79414V5.66934H3.0619V5.96934ZM2.18426 17.7546L3.21134 5.83221L2.91245 5.80646L1.88537 17.7289L2.18426 17.7546ZM3.81304 19.0707C2.89779 19.0707 2.19817 18.4519 2.18479 17.739L1.88484 17.7446C1.90211 18.6644 2.78144 19.3707 3.81304 19.3707V19.0707Z" fill="white"/>
<path d="M7 5.5H2.5L2 9.5V14.5L1.5 18L3 19.5H7.5H13L15 19L15.5 18L15 13.5L13.5 5.5H12.5H7Z" fill="white"/>
</svg>
