<svg width="20" height="20" viewBox="0 0 20 20" fill="none" xmlns="http://www.w3.org/2000/svg">
<path d="M15 11.6667C13.9081 11.6676 12.8326 11.4002 11.8684 10.8878C10.9041 10.3754 10.0806 9.63376 9.47039 8.72825C8.86016 7.82274 8.4819 6.78109 8.36892 5.69501C8.25594 4.60893 8.41171 3.51172 8.8225 2.5H0.833333C0.61232 2.5 0.400358 2.5878 0.244078 2.74408C0.0877974 2.90036 0 3.11232 0 3.33333L0 19.1667C0 19.3877 0.0877974 19.5996 0.244078 19.7559C0.400358 19.9122 0.61232 20 0.833333 20H16.6667C16.8877 20 17.0996 19.9122 17.2559 19.7559C17.4122 19.5996 17.5 19.3877 17.5 19.1667V11.1775C16.7061 11.5007 15.8571 11.6668 15 11.6667ZM15.8333 18.3333H1.66667V15H15.8333V18.3333Z" fill="#1F7BF4"/>
<path d="M15 0C14.0111 0 13.0444 0.293245 12.2222 0.842652C11.3999 1.39206 10.759 2.17295 10.3806 3.08658C10.0022 4.00021 9.90315 5.00555 10.0961 5.97545C10.289 6.94536 10.7652 7.83627 11.4645 8.53553C12.1637 9.2348 13.0546 9.711 14.0246 9.90393C14.9945 10.0969 15.9998 9.99784 16.9134 9.6194C17.827 9.24096 18.6079 8.6001 19.1573 7.77785C19.7068 6.95561 20 5.98891 20 5C20 3.67392 19.4732 2.40215 18.5355 1.46447C17.5979 0.526784 16.3261 0 15 0ZM17.9167 5.83333H15.8333V7.91667C15.8333 8.02717 15.7894 8.13316 15.7113 8.2113C15.6332 8.28944 15.5272 8.33333 15.4167 8.33333H14.5833C14.4728 8.33333 14.3668 8.28944 14.2887 8.2113C14.2106 8.13316 14.1667 8.02717 14.1667 7.91667V5.83333H12.0833C11.9728 5.83333 11.8668 5.78943 11.7887 5.71129C11.7106 5.63315 11.6667 5.52717 11.6667 5.41667V4.58333C11.6667 4.47283 11.7106 4.36685 11.7887 4.28871C11.8668 4.21057 11.9728 4.16667 12.0833 4.16667H14.1667V2.08333C14.1667 1.97283 14.2106 1.86685 14.2887 1.78871C14.3668 1.71057 14.4728 1.66667 14.5833 1.66667H15.4167C15.5272 1.66667 15.6332 1.71057 15.7113 1.78871C15.7894 1.86685 15.8333 1.97283 15.8333 2.08333V4.16667H17.9167C18.0272 4.16667 18.1332 4.21057 18.2113 4.28871C18.2894 4.36685 18.3333 4.47283 18.3333 4.58333V5.41667C18.3333 5.52717 18.2894 5.63315 18.2113 5.71129C18.1332 5.78943 18.0272 5.83333 17.9167 5.83333Z" fill="#1F7BF4"/>
</svg>
