<svg width="15" height="18" viewBox="0 0 15 18" fill="none" xmlns="http://www.w3.org/2000/svg">
<path d="M7.58333 0.666992C3.675 0.666992 0.5 3.84199 0.5 7.75033C0.5 11.6587 3.675 14.8337 7.58333 14.8337H8V17.3337C12.05 15.3837 14.6667 11.5003 14.6667 7.75033C14.6667 3.84199 11.4917 0.666992 7.58333 0.666992ZM8.41667 12.7503H6.75V11.0837H8.41667V12.7503ZM8.41667 9.83366H6.75C6.75 7.12533 9.25 7.33366 9.25 5.66699C9.25 4.75033 8.5 4.00033 7.58333 4.00033C6.66667 4.00033 5.91667 4.75033 5.91667 5.66699H4.25C4.25 3.82533 5.74167 2.33366 7.58333 2.33366C9.425 2.33366 10.9167 3.82533 10.9167 5.66699C10.9167 7.75033 8.41667 7.95866 8.41667 9.83366Z" fill="#84818A"/>
</svg>
