<svg width="21" height="21" viewBox="0 0 21 21" fill="none" xmlns="http://www.w3.org/2000/svg">
<path fill-rule="evenodd" clip-rule="evenodd" d="M16.4086 1.5C16.4086 1.5 8.73161 1.504 8.71961 1.504C5.95961 1.521 4.25061 3.337 4.25061 6.107V15.303C4.25061 18.087 5.97261 19.91 8.75661 19.91C8.75661 19.91 16.4326 19.907 16.4456 19.907C19.2056 19.89 20.9156 18.073 20.9156 15.303V6.107C20.9156 3.323 19.1926 1.5 16.4086 1.5Z" fill="#FFD24E"/>
<path fill-rule="evenodd" clip-rule="evenodd" d="M13.4086 1.5C13.4086 1.5 5.73161 1.504 5.71961 1.504C2.95961 1.521 1.25061 3.337 1.25061 6.107V15.303C1.25061 18.087 2.97261 19.91 5.75661 19.91C5.75661 19.91 13.4326 19.907 13.4456 19.907C16.2056 19.89 17.9156 18.073 17.9156 15.303V6.107C17.9156 3.323 16.1926 1.5 13.4086 1.5Z" stroke="#425060" stroke-width="1.4" stroke-linecap="round" stroke-linejoin="round"/>
<path d="M13.2162 14.9736H5.99622" stroke="#425060" stroke-width="1.5" stroke-linecap="round" stroke-linejoin="round"/>
<path d="M13.2162 10.7871H5.99622" stroke="#425060" stroke-width="1.5" stroke-linecap="round" stroke-linejoin="round"/>
<path d="M8.75122 6.61035H5.99622" stroke="#425060" stroke-width="1.5" stroke-linecap="round" stroke-linejoin="round"/>
</svg>
