<svg width="18" height="18" viewBox="0 0 18 18" fill="none" xmlns="http://www.w3.org/2000/svg">
<path d="M6 5.12496C6.11667 4.99996 6.28333 4.94163 6.44167 4.94163C6.6 4.94163 6.75833 4.99996 6.88333 5.12496L8.38333 6.62496V1.29163C8.38333 1.12587 8.44918 0.966894 8.56639 0.849684C8.6836 0.732474 8.84257 0.666626 9.00833 0.666626C9.17409 0.666626 9.33307 0.732474 9.45028 0.849684C9.56749 0.966894 9.63333 1.12587 9.63333 1.29163V6.62496L11.1333 5.12496C11.2583 4.99996 11.4167 4.94163 11.575 4.94163C11.7333 4.94163 11.9 4.99996 12.0167 5.12496C12.2667 5.36663 12.2667 5.75829 12.0167 6.00829L9.475 8.55829C9.41564 8.62314 9.34358 8.67509 9.2633 8.71092C9.18303 8.74676 9.09624 8.76572 9.00833 8.76663C8.92043 8.76572 8.83364 8.74676 8.75336 8.71092C8.67309 8.67509 8.60103 8.62314 8.54167 8.55829L6 6.00829C5.75 5.75829 5.75 5.36663 6 5.12496Z" fill="#1F7BF4"/>
<path d="M9.00844 8.76659C8.84274 8.76644 8.68387 8.7005 8.56677 8.58325H9.45011C9.33301 8.7005 9.17414 8.76644 9.00844 8.76659Z" fill="#1F7BF4"/>
<path d="M13.2917 9.22498H4.72505C2.49172 9.22498 0.675049 11.0416 0.675049 13.275C0.675049 15.5083 2.49172 17.3333 4.72505 17.3333H13.2917C15.525 17.3333 17.3417 15.5083 17.3417 13.275C17.3417 11.0416 15.525 9.22498 13.2917 9.22498ZM9.86672 13.9H8.15005C7.98429 13.9 7.82532 13.8341 7.70811 13.7169C7.5909 13.5997 7.52505 13.4407 7.52505 13.275C7.52505 13.1092 7.5909 12.9502 7.70811 12.833C7.82532 12.7158 7.98429 12.65 8.15005 12.65H9.86672C10.0325 12.65 10.1914 12.7158 10.3087 12.833C10.4259 12.9502 10.4917 13.1092 10.4917 13.275C10.4917 13.4407 10.4259 13.5997 10.3087 13.7169C10.1914 13.8341 10.0325 13.9 9.86672 13.9Z" fill="#1F7BF4"/>
</svg>
