<svg width="37" height="40" viewBox="0 0 37 40" fill="none" xmlns="http://www.w3.org/2000/svg">
<path fill-rule="evenodd" clip-rule="evenodd" d="M25.4317 29.9473H10.9917C10.1637 29.9473 9.4917 29.2753 9.4917 28.4473C9.4917 27.6193 10.1637 26.9473 10.9917 26.9473H25.4317C26.2597 26.9473 26.9317 27.6193 26.9317 28.4473C26.9317 29.2753 26.2597 29.9473 25.4317 29.9473Z" fill="#FFD24E"/>
<path fill-rule="evenodd" clip-rule="evenodd" d="M25.4317 21.5742H10.9917C10.1637 21.5742 9.4917 20.9022 9.4917 20.0742C9.4917 19.2462 10.1637 18.5742 10.9917 18.5742H25.4317C26.2597 18.5742 26.9317 19.2462 26.9317 20.0742C26.9317 20.9022 26.2597 21.5742 25.4317 21.5742Z" fill="#FFD24E"/>
<path fill-rule="evenodd" clip-rule="evenodd" d="M16.501 13.2207H10.991C10.163 13.2207 9.49097 12.5487 9.49097 11.7207C9.49097 10.8927 10.163 10.2207 10.991 10.2207H16.501C17.329 10.2207 18.001 10.8927 18.001 11.7207C18.001 12.5487 17.329 13.2207 16.501 13.2207Z" fill="#FFD24E"/>
<mask id="mask0_1532_4315" style="mask-type:luminance" maskUnits="userSpaceOnUse" x="0" y="0" width="37" height="40">
<path fill-rule="evenodd" clip-rule="evenodd" d="M0 0H36.3294V39.8196H0V0Z" fill="white"/>
</mask>
<g mask="url(#mask0_1532_4315)">
<path fill-rule="evenodd" clip-rule="evenodd" d="M25.8175 3L10.4395 3.008C5.78351 3.036 2.99951 5.916 2.99951 10.714V29.106C2.99951 33.936 5.80951 36.82 10.5115 36.82L25.8895 36.814C30.5455 36.786 33.3295 33.902 33.3295 29.106V10.714C33.3295 5.884 30.5215 3 25.8175 3ZM10.5135 39.82C4.22551 39.82 -0.000488281 35.514 -0.000488281 29.106V10.714C-0.000488281 4.248 4.09351 0.046 10.4295 0.008L25.8155 0H25.8175C32.1055 0 36.3295 4.306 36.3295 10.714V29.106C36.3295 35.57 32.2355 39.774 25.8995 39.814L10.5135 39.82Z" fill="#FFD24E"/>
</g>
</svg>
