<svg width="17" height="17" viewBox="0 0 17 17" fill="none" xmlns="http://www.w3.org/2000/svg">
<path d="M12.1975 8.00016L4.66667 15.5002H0.5V11.3335L8 3.80266C8.02323 3.77935 8.05082 3.76086 8.08121 3.74824C8.1116 3.73562 8.14418 3.72913 8.17708 3.72913C8.20999 3.72913 8.24257 3.73562 8.27295 3.74824C8.30334 3.76086 8.33094 3.77935 8.35417 3.80266L12.1992 7.64766C12.2455 7.69472 12.2713 7.75821 12.271 7.82425C12.2707 7.8903 12.2443 7.95354 12.1975 8.00016ZM13.09 6.77182C13.1369 6.81864 13.2004 6.84494 13.2667 6.84494C13.3329 6.84494 13.3965 6.81864 13.4433 6.77182L15.0083 5.20849C15.322 4.89456 15.4982 4.46894 15.4982 4.02516C15.4982 3.58138 15.322 3.15575 15.0083 2.84182L13.1583 0.991824C12.8444 0.678151 12.4188 0.501953 11.975 0.501953C11.5312 0.501953 11.1056 0.678151 10.7917 0.991824L9.22667 2.55682C9.17985 2.6037 9.15355 2.66724 9.15355 2.73349C9.15355 2.79974 9.17985 2.86328 9.22667 2.91016L13.09 6.77182ZM15.5 14.8752H9.66667C9.50091 14.8752 9.34194 14.941 9.22472 15.0582C9.10751 15.1754 9.04167 15.3344 9.04167 15.5002C9.04167 15.6659 9.10751 15.8249 9.22472 15.9421C9.34194 16.0593 9.50091 16.1252 9.66667 16.1252H15.5C15.6658 16.1252 15.8247 16.0593 15.9419 15.9421C16.0592 15.8249 16.125 15.6659 16.125 15.5002C16.125 15.3344 16.0592 15.1754 15.9419 15.0582C15.8247 14.941 15.6658 14.8752 15.5 14.8752Z" fill="#84818A"/>
</svg>
