<svg width="16" height="16" viewBox="0 0 16 16" fill="none" xmlns="http://www.w3.org/2000/svg">
<path fill-rule="evenodd" clip-rule="evenodd" d="M11.2969 13.5001V12.25C11.2969 11.9048 11.0171 11.625 10.6719 11.625C10.3267 11.625 10.0469 11.9048 10.0469 12.25V13.5001C10.0469 14.1893 9.48612 14.7501 8.79691 14.7501H2.51563C1.82642 14.7501 1.26563 14.1893 1.26563 13.5001V2.50001C1.26563 1.8108 1.82642 1.25 2.51563 1.25H8.79691C9.48612 1.25 10.0469 1.8108 10.0469 2.50001V3.75001C10.0469 4.09523 10.3267 4.37502 10.6719 4.37502C11.0171 4.37502 11.2969 4.09523 11.2969 3.75001V2.50001C11.2969 1.12146 10.1755 0 8.79691 0H2.51563C1.13709 0 0.015625 1.12146 0.015625 2.50001V13.5001C0.015625 14.8786 1.13709 16.0001 2.51563 16.0001H8.79691C10.1755 16.0001 11.2969 14.8786 11.2969 13.5001ZM14.1179 5.52688L15.5174 6.92642C16.1266 7.53567 16.1266 8.52689 15.5174 9.13614L14.1179 10.5357C13.9958 10.6578 13.8359 10.7188 13.6758 10.7188C13.5159 10.7188 13.356 10.6578 13.2339 10.5357C12.9898 10.2917 12.9898 9.89591 13.2339 9.65189L14.2294 8.65628H6.725C6.37979 8.65628 6.1 8.3765 6.1 8.03128C6.1 7.68606 6.37979 7.40628 6.725 7.40628H14.2294L13.2339 6.41067C12.9898 6.16665 12.9898 5.7709 13.2339 5.52688C13.478 5.28273 13.8737 5.28273 14.1179 5.52688Z" fill="#FF6A6A"/>
</svg>
