<svg width="16" height="16" viewBox="0 0 16 16" fill="none" xmlns="http://www.w3.org/2000/svg">
<path d="M13 0.499696H3C2.66041 0.451245 2.31421 0.482508 1.9888 0.591011C1.66338 0.699514 1.36769 0.882277 1.12514 1.12483C0.882583 1.36739 0.699819 1.66308 0.591316 1.98849C0.482813 2.31391 0.45155 2.66011 0.500001 2.9997V15.4997L3 12.9997H13C13.3396 13.0481 13.6858 13.0169 14.0112 12.9084C14.3366 12.7999 14.6323 12.6171 14.8749 12.3746C15.1174 12.132 15.3002 11.8363 15.4087 11.5109C15.5172 11.1855 15.5485 10.8393 15.5 10.4997V2.9997C15.5485 2.66011 15.5172 2.31391 15.4087 1.98849C15.3002 1.66308 15.1174 1.36739 14.8749 1.12483C14.6323 0.882277 14.3366 0.699514 14.0112 0.591011C13.6858 0.482508 13.3396 0.451245 13 0.499696ZM8.01667 10.4997C7.90723 10.5002 7.79876 10.4792 7.69745 10.4379C7.59613 10.3965 7.50396 10.3356 7.42619 10.2586C7.26913 10.1031 7.18027 9.89154 7.17917 9.67053C7.17806 9.44952 7.2648 9.23711 7.4203 9.08005C7.5758 8.92299 7.78732 8.83413 8.00834 8.83303H8.01667C8.23768 8.83303 8.44964 8.92083 8.60592 9.07711C8.7622 9.23339 8.85 9.44535 8.85 9.66636C8.85 9.88738 8.7622 10.0993 8.60592 10.2556C8.44964 10.4119 8.23768 10.4997 8.01667 10.4997ZM9.12084 7.20886C8.6575 7.5172 8.59417 7.67303 8.59167 7.6797C8.54655 7.8012 8.46557 7.90612 8.35945 7.98053C8.25334 8.05495 8.12711 8.09534 7.9975 8.09636C7.92789 8.0963 7.85881 8.08418 7.79333 8.06053C7.63921 8.00813 7.5121 7.89684 7.4398 7.75099C7.36749 7.60513 7.35588 7.43659 7.4075 7.2822C7.6222 6.81204 7.97971 6.42157 8.42917 6.16636C8.60394 6.0844 8.7469 5.94725 8.83605 5.77603C8.9252 5.60482 8.95557 5.40904 8.9225 5.21886C8.89191 5.0581 8.81981 4.90814 8.71335 4.78386C8.60689 4.65958 8.46979 4.5653 8.31563 4.51038C8.16148 4.45545 7.99565 4.4418 7.83459 4.47077C7.67353 4.49974 7.52285 4.57033 7.3975 4.67553C7.29281 4.76362 7.2087 4.87359 7.15111 4.9977C7.09352 5.12181 7.06384 5.25704 7.06417 5.39386C7.06417 5.55962 6.99832 5.71859 6.88111 5.8358C6.7639 5.95301 6.60493 6.01886 6.43917 6.01886C6.27341 6.01886 6.11444 5.95301 5.99723 5.8358C5.88002 5.71859 5.81417 5.55962 5.81417 5.39386C5.81485 4.84799 6.01951 4.32209 6.388 3.91936C6.75649 3.51663 7.26219 3.26616 7.80585 3.2171C8.34951 3.16805 8.89188 3.32395 9.3265 3.65422C9.76113 3.98449 10.0566 4.46526 10.155 5.0022C10.2304 5.43171 10.1716 5.87403 9.98651 6.2689C9.80145 6.66377 9.49917 6.99199 9.12084 7.20886Z" fill="#84818A"/>
</svg>
