<svg width="50" height="50" viewBox="0 0 50 50" fill="none" xmlns="http://www.w3.org/2000/svg">
<path d="M3.125 6.25C3.125 2.80273 5.92773 0 9.375 0H25C28.4473 0 31.25 2.80273 31.25 6.25V25H32.0312C36.7773 25 40.625 28.8477 40.625 33.5938V36.7188C40.625 38.0176 41.6699 39.0625 42.9688 39.0625C44.2676 39.0625 45.3125 38.0176 45.3125 36.7188V21.6797C42.6172 20.9863 40.625 18.5352 40.625 15.625V9.375L37.5 6.25C36.6406 5.39062 36.6406 3.98438 37.5 3.125C38.3594 2.26562 39.7656 2.26562 40.625 3.125L48.1738 10.6738C49.3457 11.8457 50 13.4375 50 15.0977V36.7188C50 40.6055 46.8555 43.75 42.9688 43.75C39.082 43.75 35.9375 40.6055 35.9375 36.7188V33.5938C35.9375 31.4355 34.1895 29.6875 32.0312 29.6875H31.25V43.75C32.9785 43.75 34.375 45.1465 34.375 46.875C34.375 48.6035 32.9785 50 31.25 50H3.125C1.39648 50 0 48.6035 0 46.875C0 45.1465 1.39648 43.75 3.125 43.75V6.25ZM9.375 7.8125V17.1875C9.375 18.0469 10.0781 18.75 10.9375 18.75H23.4375C24.2969 18.75 25 18.0469 25 17.1875V7.8125C25 6.95312 24.2969 6.25 23.4375 6.25H10.9375C10.0781 6.25 9.375 6.95312 9.375 7.8125Z" fill="black"/>
</svg>
