<svg width="59" height="56" viewBox="0 0 59 56" fill="none" xmlns="http://www.w3.org/2000/svg">
<path d="M54.7023 10.8267L54.7458 10.7738L42.3247 0.693777L38.4121 5.52844L44.8307 10.7364C43.2401 11.7046 41.9766 13.1293 41.2042 14.8258C40.4317 16.5222 40.186 18.4121 40.4988 20.2502C40.9615 23.0471 42.8775 25.4644 45.3586 26.8209C48.144 28.3453 50.5909 28.2084 52.7615 27.4337L52.7149 46.6666C52.7187 47.1818 52.5942 47.6897 52.3527 48.1445C52.1112 48.5993 51.7603 48.9867 51.3318 49.2714C50.9033 49.5562 50.4107 49.7294 49.8985 49.7754C49.3864 49.8215 48.8709 49.7389 48.3986 49.5351C48.0287 49.3766 47.6933 49.1472 47.4112 48.8599C47.1241 48.5717 46.8965 48.2297 46.7415 47.8534C46.5864 47.477 46.5069 47.0738 46.5075 46.6666L46.5789 40.4444C46.5821 39.2198 46.343 38.0067 45.8756 36.8752C45.4082 35.7437 44.7216 34.7162 43.8556 33.852C42.9906 32.9834 41.963 32.2942 40.8318 31.8239C39.7006 31.3535 38.4879 31.1113 37.2632 31.1111H34.1579V6.22221C34.1579 2.79066 31.3725 0 27.9474 0H6.21053C2.78542 0 0 2.79066 0 6.22221V49.7777C0 53.2093 2.78542 55.9999 6.21053 55.9999H27.9474C31.3725 55.9999 34.1579 53.2093 34.1579 49.7777V37.3333H37.2632C37.6855 37.3333 38.0923 37.4173 38.4773 37.576C39.2163 37.9001 39.8055 38.4925 40.1262 39.2342C40.2873 39.6172 40.3697 40.0288 40.3684 40.4444L40.2939 46.6666C40.2939 47.9297 40.5392 49.1524 41.0267 50.3004C41.4956 51.4173 42.1695 52.4159 43.0172 53.259C43.8792 54.1318 44.9061 54.8237 46.0381 55.2943C47.17 55.7649 48.3842 56.0048 49.6097 55.9999C50.8704 55.9999 52.0877 55.7573 53.2366 55.2657C54.3483 54.799 55.3482 54.1239 56.1897 53.2715C57.0591 52.4065 57.7485 51.3774 58.2181 50.2436C58.6877 49.1099 58.9281 47.8941 58.9255 46.6666L59 18.6666C58.9969 17.1037 58.6017 15.5666 57.8508 14.1966C57.0998 12.8267 56.0171 11.6678 54.7023 10.8267ZM6.21053 6.22221H27.9474L27.9505 18.6666H6.21053V6.22221ZM6.21053 49.7777V24.8889H27.9505L27.9536 49.7777H6.21053ZM49.6842 21.7777C48.8606 21.7777 48.0708 21.45 47.4885 20.8665C46.9061 20.2831 46.5789 19.4918 46.5789 18.6666C46.5789 17.8415 46.9061 17.0502 47.4885 16.4668C48.0708 15.8833 48.8606 15.5555 49.6842 15.5555C50.5078 15.5555 51.2976 15.8833 51.88 16.4668C52.4623 17.0502 52.7895 17.8415 52.7895 18.6666C52.7895 19.4918 52.4623 20.2831 51.88 20.8665C51.2976 21.45 50.5078 21.7777 49.6842 21.7777Z" fill="black"/>
</svg>
