<svg width="23" height="22" viewBox="0 0 23 22" fill="none" xmlns="http://www.w3.org/2000/svg">
<path fill-rule="evenodd" clip-rule="evenodd" d="M21.5625 5.84553H17.0142C17.3406 5.6179 17.6209 5.39174 17.8164 5.18907C18.975 3.99805 18.975 2.05951 17.8164 0.868486C16.6908 -0.288761 14.7272 -0.29023 13.6002 0.868486C12.9777 1.50732 11.3232 4.10819 11.5518 5.84553H11.4482C11.6754 4.10819 10.0223 1.50732 9.39981 0.868486C8.27281 -0.29023 6.30919 -0.288761 5.18363 0.868486C4.025 2.05951 4.025 3.99805 5.18219 5.18907C5.37913 5.39174 5.65944 5.6179 5.98575 5.84553H1.4375C0.645437 5.84553 0 6.50493 0 7.31412V10.9856C0 11.3909 0.322 11.7199 0.71875 11.7199H1.4375V20.5314C1.4375 21.3406 2.08294 22 2.875 22H20.125C20.9171 22 21.5625 21.3406 21.5625 20.5314V11.7199H22.2812C22.678 11.7199 23 11.3909 23 10.9856V7.31412C23 6.50493 22.3546 5.84553 21.5625 5.84553ZM6.20281 1.90384C6.49463 1.60425 6.88131 1.43977 7.29244 1.43977C7.70213 1.43977 8.08881 1.60425 8.38062 1.90384C9.3495 2.89954 10.3126 5.44314 9.97769 5.79707C9.97769 5.79707 9.91731 5.84553 9.71175 5.84553C8.71844 5.84553 6.82237 4.79109 6.20281 4.15372C5.6005 3.53397 5.6005 2.52359 6.20281 1.90384ZM2.875 20.5314H10.7812V11.7199H2.875V20.5314ZM10.7812 10.2513H1.4375V7.31412H9.71175H10.7812V10.2513ZM16.7972 1.90384C16.215 1.30759 15.203 1.30613 14.6194 1.90384C13.6505 2.89954 12.6874 5.44314 13.0209 5.79707C13.0223 5.79854 13.0827 5.84553 13.2882 5.84553C14.2816 5.84553 16.1776 4.79109 16.7972 4.15372C17.3995 3.53397 17.3995 2.52359 16.7972 1.90384ZM20.125 20.5314H12.2188V11.7199H20.125V20.5314ZM12.2188 10.2513H21.5625V7.31412H13.2882H12.2188V10.2513Z" fill="#FF821E"/>
</svg>
