<svg width="18" height="18" viewBox="0 0 18 18" fill="none" xmlns="http://www.w3.org/2000/svg">
<path d="M15.5625 12C15.8111 12 16.0496 11.9012 16.2254 11.7254C16.4012 11.5496 16.5 11.3111 16.5 11.0625C16.5 10.8139 16.4012 10.5754 16.2254 10.3996C16.0496 10.2238 15.8111 10.125 15.5625 10.125H9V9.375H14.0625C14.58 9.375 15 8.955 15 8.4375C15 7.935 14.6025 7.5375 14.115 7.5075L6.6525 7.5L7.7625 5.55C7.83 5.4225 7.8675 5.295 7.8675 5.145C7.8675 4.95 7.8 4.77 7.6725 4.62L6.84 3.75L1.455 8.85C1.005 9.27 0.75 9.8625 0.75 10.4775V15C0.75 16.245 1.755 17.25 3 17.25H13.3125C13.5611 17.25 13.7996 17.1512 13.9754 16.9754C14.1512 16.7996 14.25 16.5611 14.25 16.3125C14.25 16.0639 14.1512 15.8254 13.9754 15.6496C13.7996 15.4738 13.5611 15.375 13.3125 15.375H9V14.625H14.8125C15.0611 14.625 15.2996 14.5262 15.4754 14.3504C15.6512 14.1746 15.75 13.9361 15.75 13.6875C15.75 13.4389 15.6512 13.2004 15.4754 13.0246C15.2996 12.8488 15.0611 12.75 14.8125 12.75H9V12H15.5625ZM7.5 15.75H3C2.5875 15.75 2.25 15.4125 2.25 15V10.5C2.25 10.2075 2.4225 10.02 2.52 9.9375L5.25 7.4025V9H7.5V15.75ZM10.125 6.75C10.7475 6.75 11.25 6.2475 11.25 5.625C11.25 4.995 10.125 3.75 10.125 3.75C10.125 3.75 9 4.995 9 5.625C9 6.2475 9.5025 6.75 10.125 6.75ZM13.875 0.75C13.875 0.75 12 2.8725 12 4.125C12 4.62228 12.1975 5.09919 12.5492 5.45083C12.9008 5.80246 13.3777 6 13.875 6C14.3723 6 14.8492 5.80246 15.2008 5.45083C15.5525 5.09919 15.75 4.62228 15.75 4.125C15.75 2.8725 13.875 0.75 13.875 0.75ZM13.875 4.875C13.4625 4.875 13.125 4.5375 13.125 4.125C13.125 3.825 13.4475 3.21 13.875 2.5875C14.3025 3.21 14.625 3.825 14.625 4.125C14.625 4.5375 14.2875 4.875 13.875 4.875Z" fill="#84818A"/>
</svg>
