<svg width="18" height="18" viewBox="0 0 18 18" fill="none" xmlns="http://www.w3.org/2000/svg">
<path d="M4.83334 0.666992H4.00001C1.50001 0.666992 0.666672 2.15866 0.666672 4.00033V16.5003C0.666672 17.192 1.45 17.5837 2.00001 17.167L3.425 16.1003C3.75834 15.8503 4.22501 15.8837 4.52501 16.1837L5.90834 17.5753C6.23334 17.9003 6.76667 17.9003 7.09167 17.5753L8.49167 16.1753C8.78334 15.8837 9.25 15.8503 9.575 16.1003L11 17.167C11.55 17.5753 12.3333 17.1837 12.3333 16.5003V2.33366C12.3333 1.41699 13.0833 0.666992 14 0.666992H4.83334ZM8.375 10.4587H4.62501C4.28334 10.4587 4.00001 10.1753 4.00001 9.83366C4.00001 9.49199 4.28334 9.20866 4.62501 9.20866H8.375C8.71667 9.20866 9 9.49199 9 9.83366C9 10.1753 8.71667 10.4587 8.375 10.4587ZM9 7.12533H4.00001C3.65834 7.12533 3.37501 6.84199 3.37501 6.50033C3.37501 6.15866 3.65834 5.87533 4.00001 5.87533H9C9.34167 5.87533 9.625 6.15866 9.625 6.50033C9.625 6.84199 9.34167 7.12533 9 7.12533Z" fill="#84818A"/>
<path d="M14.0083 1.91699C14.5583 1.91699 15.0833 2.14199 15.4667 2.51699C15.8667 2.92533 16.0833 3.45033 16.0833 4.00033V6.01699C16.0833 6.63366 15.8083 6.91699 15.1833 6.91699H13.5833V2.34199C13.5833 2.10866 13.775 1.91699 14.0083 1.91699ZM14.0083 0.666992C13.0833 0.666992 12.3333 1.41699 12.3333 2.34199V8.16699H15.1833C16.5 8.16699 17.3333 7.33366 17.3333 6.01699V4.00033C17.3333 3.08366 16.9583 2.25033 16.3583 1.64199C15.7325 1.02242 14.889 0.672455 14.0083 0.666992Z" fill="#84818A"/>
</svg>
