<svg width="20" height="20" viewBox="0 0 20 20" fill="none" xmlns="http://www.w3.org/2000/svg">
<path fill-rule="evenodd" clip-rule="evenodd" d="M13.5857 2.29102H6.37567C3.86567 2.29102 2.2915 4.06935 2.2915 6.58602V13.3743C2.2915 15.891 3.859 17.6694 6.37567 17.6694H13.5815C16.1023 17.6694 17.669 15.891 17.669 13.3743V6.58602C17.6723 4.06935 16.1048 2.29102 13.5857 2.29102Z" stroke="#9E9E9E" stroke-width="1.5" stroke-linecap="round" stroke-linejoin="round"/>
<path fill-rule="evenodd" clip-rule="evenodd" d="M8.91944 7.31958C8.91944 8.16958 8.23111 8.85792 7.38111 8.85792C6.53194 8.85792 5.84277 8.16958 5.84277 7.31958C5.84277 6.46958 6.53194 5.78125 7.38111 5.78125C8.23027 5.78208 8.91861 6.47042 8.91944 7.31958Z" stroke="#9E9E9E" stroke-width="1.5" stroke-linecap="round" stroke-linejoin="round"/>
<path d="M17.6725 12.4592C16.9033 11.6675 15.4242 10.0684 13.8158 10.0684C12.2067 10.0684 11.2792 13.5959 9.73167 13.5959C8.18417 13.5959 6.77833 12.0009 5.53833 13.0234C4.29833 14.045 3.125 16.1342 3.125 16.1342" stroke="#9E9E9E" stroke-width="1.5" stroke-linecap="round" stroke-linejoin="round"/>
</svg>
