<svg width="17" height="17" viewBox="0 0 17 17" fill="none" xmlns="http://www.w3.org/2000/svg">
<path d="M10.6959 8.19667C10.4017 8.49137 10.0231 8.68735 9.61258 8.7575V9C9.61258 9.16576 9.54673 9.32473 9.42952 9.44194C9.31231 9.55915 9.15334 9.625 8.98758 9.625C8.82182 9.625 8.66285 9.55915 8.54564 9.44194C8.42843 9.32473 8.36258 9.16576 8.36258 9V8.75667C7.93558 8.67609 7.54569 8.46067 7.2502 8.14208C6.9547 7.82348 6.76919 7.41851 6.72091 6.98667C6.7093 6.90397 6.71437 6.81978 6.73584 6.73907C6.7573 6.65836 6.79472 6.58278 6.84589 6.51678C6.89706 6.45078 6.96093 6.3957 7.03374 6.3548C7.10655 6.3139 7.18682 6.28801 7.26981 6.27865C7.3528 6.26929 7.43682 6.27666 7.51691 6.30032C7.597 6.32398 7.67153 6.36345 7.73611 6.4164C7.80069 6.46935 7.85401 6.53471 7.8929 6.60861C7.9318 6.68251 7.95549 6.76346 7.96258 6.84667C7.98351 7.03761 8.07417 7.21412 8.21718 7.34237C8.36019 7.47061 8.54549 7.54158 8.73758 7.54167H9.26258C9.46882 7.54036 9.66625 7.45784 9.81209 7.31201C9.95793 7.16617 10.0404 6.96874 10.0417 6.7625C10.0414 6.58863 9.98319 6.41982 9.87618 6.28278C9.76917 6.14573 9.61953 6.04828 9.45091 6.00583L8.24508 5.70667C7.80564 5.59511 7.41557 5.34103 7.13591 4.98417C6.92331 4.71003 6.78461 4.38593 6.73307 4.04287C6.68152 3.69981 6.71887 3.34926 6.84153 3.02476C6.96419 2.70025 7.16806 2.41265 7.43365 2.18946C7.69923 1.96627 8.01764 1.81496 8.35841 1.75V1.5C8.35841 1.33424 8.42426 1.17527 8.54147 1.05806C8.65868 0.940848 8.81765 0.875 8.98341 0.875C9.14917 0.875 9.30815 0.940848 9.42536 1.05806C9.54257 1.17527 9.60841 1.33424 9.60841 1.5V1.74083C10.0406 1.8162 10.4367 2.02971 10.7372 2.3493C11.0377 2.6689 11.2264 3.07735 11.2751 3.51333C11.2867 3.59603 11.2816 3.68022 11.2602 3.76093C11.2387 3.84163 11.2013 3.91722 11.1501 3.98322C11.0989 4.04922 11.0351 4.1043 10.9623 4.1452C10.8894 4.1861 10.8092 4.21199 10.7262 4.22135C10.6432 4.23071 10.5592 4.22334 10.4791 4.19968C10.399 4.17602 10.3245 4.13655 10.2599 4.0836C10.1953 4.03065 10.142 3.96529 10.1031 3.89139C10.0642 3.81749 10.0405 3.73654 10.0334 3.65333C10.0125 3.46239 9.92183 3.28588 9.77882 3.15763C9.63581 3.02939 9.45051 2.95842 9.25841 2.95833H8.73341C8.63109 2.95833 8.52977 2.97849 8.43524 3.01764C8.34071 3.0568 8.25481 3.11419 8.18246 3.18655C8.11011 3.2589 8.05272 3.34479 8.01356 3.43933C7.9744 3.53386 7.95425 3.63518 7.95425 3.7375C7.95333 3.90948 8.01027 4.07678 8.11591 4.2125C8.22261 4.35226 8.37365 4.45159 8.54425 4.49417L9.75091 4.79333C10.0994 4.88022 10.4186 5.05814 10.6758 5.30888C10.933 5.55962 11.119 5.87419 11.2147 6.22039C11.3104 6.5666 11.3124 6.93202 11.2205 7.27926C11.1286 7.6265 10.9462 7.9431 10.6917 8.19667H10.6959ZM4.00008 15.6667V12.3333C4.00008 12.1123 3.91228 11.9004 3.756 11.7441C3.59972 11.5878 3.38776 11.5 3.16675 11.5H1.50008C1.27907 11.5 1.06711 11.5878 0.910826 11.7441C0.754545 11.9004 0.666748 12.1123 0.666748 12.3333V15.6667C0.666748 15.8877 0.754545 16.0996 0.910826 16.2559C1.06711 16.4122 1.27907 16.5 1.50008 16.5H3.16675C3.38776 16.5 3.59972 16.4122 3.756 16.2559C3.91228 16.0996 4.00008 15.8877 4.00008 15.6667ZM15.3834 11.5167C15.1837 11.5171 14.9878 11.5718 14.8167 11.675L12.9251 12.8083C12.8363 13.3166 12.5713 13.7773 12.1766 14.1095C11.7819 14.4417 11.2827 14.6243 10.7667 14.625H8.16675C8.00099 14.625 7.84202 14.5592 7.72481 14.4419C7.6076 14.3247 7.54175 14.1658 7.54175 14C7.54175 13.8342 7.6076 13.6753 7.72481 13.5581C7.84202 13.4408 8.00099 13.375 8.16675 13.375H10.7667C11.0154 13.375 11.2538 13.2762 11.4297 13.1004C11.6055 12.9246 11.7042 12.6861 11.7042 12.4375C11.7042 12.1889 11.6055 11.9504 11.4297 11.7746C11.2538 11.5988 11.0154 11.5 10.7667 11.5H6.50008C6.05846 11.5013 5.6353 11.6773 5.32303 11.9896C5.01075 12.3019 4.83473 12.725 4.83341 13.1667V14.8333C4.83473 15.275 5.01075 15.6981 5.32303 16.0104C5.6353 16.3227 6.05846 16.4987 6.50008 16.5H11.1667C11.9245 16.5001 12.6595 16.2414 13.2501 15.7667L16.0834 13.5C16.2139 13.3964 16.3191 13.2646 16.3913 13.1145C16.4635 12.9644 16.5007 12.7999 16.5001 12.6333C16.5001 12.3372 16.3824 12.0531 16.173 11.8437C15.9636 11.6343 15.6796 11.5167 15.3834 11.5167Z" fill="#1F7BF4"/>
</svg>
