<svg width="18" height="21" viewBox="0 0 18 21" fill="none" xmlns="http://www.w3.org/2000/svg">
<path d="M9.017 0.5C6.19164 1.97702 3.14708 2.98996 0 3.5V9.389C0 16.056 5.667 19.389 9 20.5C12.333 19.389 18 16.056 18 9.389V3.5C14.8619 2.99745 11.8273 1.98402 9.017 0.5ZM9.75 10.8V13.5C9.75 13.6989 9.67098 13.8897 9.53033 14.0303C9.38968 14.171 9.19891 14.25 9 14.25C8.80109 14.25 8.61032 14.171 8.46967 14.0303C8.32902 13.8897 8.25 13.6989 8.25 13.5V10.782C7.96786 10.6152 7.74834 10.3604 7.62521 10.0567C7.50209 9.75294 7.48217 9.41717 7.56854 9.10103C7.65491 8.78488 7.84277 8.50587 8.10322 8.30693C8.36366 8.10799 8.68227 8.00015 9.01 8H9.02C9.34881 8.00398 9.6672 8.11589 9.92618 8.31852C10.1852 8.52115 10.3704 8.80327 10.4533 9.12147C10.5363 9.43966 10.5124 9.7763 10.3853 10.0796C10.2582 10.3829 10.035 10.636 9.75 10.8Z" fill="#1F7BF4"/>
</svg>
