<svg width="20" height="23" viewBox="0 0 20 23" fill="none" xmlns="http://www.w3.org/2000/svg">
<path d="M19.147 3.76504C16.075 3.27615 13.1046 2.28454 10.355 0.830035C10.2445 0.780487 10.1245 0.756044 10.0034 0.758465C9.88239 0.760885 9.76339 0.79011 9.655 0.844035C6.89689 2.28236 3.92575 3.26858 0.855 3.76504C0.684588 3.79842 0.531071 3.88998 0.420711 4.02406C0.310351 4.15813 0.250006 4.32638 0.25 4.50004V10.389C0.25 18.623 8.174 21.682 9.763 22.211C9.91673 22.263 10.0833 22.263 10.237 22.211C11.826 21.682 19.75 18.623 19.75 10.389V4.50004C19.7501 4.32667 19.69 4.15864 19.5801 4.0246C19.4701 3.89057 19.317 3.79883 19.147 3.76504ZM18.247 10.389C18.247 17.253 11.829 20.049 9.997 20.706C8.165 20.049 1.747 17.253 1.747 10.389V5.11204C4.62489 4.60459 7.4107 3.66958 10.012 2.33804C12.6023 3.67307 15.3798 4.60833 18.25 5.11204L18.247 10.389ZM10.01 9.00004H10.02C10.3488 9.00401 10.6672 9.11593 10.9262 9.31856C11.1852 9.52119 11.3704 9.80331 11.4533 10.1215C11.5363 10.4397 11.5124 10.7763 11.3853 11.0796C11.2582 11.3829 11.035 11.636 10.75 11.8V14.5C10.75 14.6989 10.671 14.8897 10.5303 15.0304C10.3897 15.171 10.1989 15.25 10 15.25C9.80109 15.25 9.61032 15.171 9.46967 15.0304C9.32902 14.8897 9.25 14.6989 9.25 14.5V11.782C8.96786 11.6153 8.74834 11.3604 8.62521 11.0567C8.50209 10.753 8.48217 10.4172 8.56854 10.1011C8.65491 9.78491 8.84277 9.5059 9.10322 9.30697C9.36366 9.10803 9.68227 9.00019 10.01 9.00004Z" fill="#84818A"/>
</svg>
