<svg width="20" height="21" viewBox="0 0 20 21" fill="none" xmlns="http://www.w3.org/2000/svg">
<path d="M15.53 5.77C15.4604 5.76 15.3897 5.76 15.32 5.77C14.5732 5.74556 13.8652 5.43119 13.3462 4.89355C12.8273 4.3559 12.5381 3.63726 12.54 2.89C12.54 1.3 13.83 0 15.43 0C17.02 0 18.32 1.29 18.32 2.89C18.3179 3.63773 18.026 4.35553 17.5058 4.89258C16.9855 5.42963 16.2773 5.74413 15.53 5.77Z" fill="#1F7BF4"/>
<path d="M18.7921 12.7C17.6721 13.45 16.1021 13.73 14.6521 13.54C15.0321 12.72 15.2321 11.81 15.2421 10.85C15.2421 9.84998 15.0221 8.89998 14.6021 8.06998C16.0821 7.86998 17.6521 8.14998 18.7821 8.89998C20.3621 9.93998 20.3621 11.65 18.7921 12.7Z" fill="#1F7BF4"/>
<path d="M4.44016 5.77001C4.51016 5.76001 4.58016 5.76001 4.65016 5.77001C5.39702 5.74557 6.105 5.4312 6.62397 4.89355C7.14295 4.35591 7.43212 3.63726 7.43016 2.89C7.43016 2.51114 7.35553 2.13599 7.21055 1.78596C7.06556 1.43594 6.85306 1.1179 6.58516 0.850002C6.31726 0.582105 5.99922 0.369597 5.6492 0.224612C5.29917 0.0796276 4.92402 0.00500488 4.54516 0.00500488C4.16629 0.00500488 3.79114 0.0796276 3.44111 0.224612C3.09109 0.369597 2.77305 0.582105 2.50515 0.850002C2.23726 1.1179 2.02475 1.43594 1.87976 1.78596C1.73478 2.13599 1.66016 2.51114 1.66016 2.89C1.66016 4.45 2.89016 5.72001 4.44016 5.77001Z" fill="#1F7BF4"/>
<path d="M4.55109 10.85C4.55109 11.82 4.76109 12.74 5.14109 13.57C3.73109 13.72 2.26109 13.42 1.18109 12.71C-0.398906 11.66 -0.398906 9.94998 1.18109 8.89998C2.25109 8.17998 3.76109 7.88998 5.18109 8.04998C4.77109 8.88998 4.55109 9.83998 4.55109 10.85Z" fill="#1F7BF4"/>
<path d="M10.1201 13.87C10.0337 13.86 9.94643 13.86 9.86006 13.87C8.9709 13.8401 8.12826 13.4655 7.51048 12.8253C6.8927 12.1851 6.54826 11.3297 6.55006 10.44C6.56006 8.54 8.09006 7 10.0001 7C11.9001 7 13.4401 8.54 13.4401 10.44C13.4395 11.3306 13.0929 12.1862 12.4735 12.8262C11.8541 13.4662 11.0102 13.8404 10.1201 13.87Z" fill="#1F7BF4"/>
<path d="M6.87005 15.94C5.36005 16.95 5.36005 18.61 6.87005 19.61C8.59005 20.76 11.41 20.76 13.13 19.61C14.64 18.6 14.64 16.94 13.13 15.94C11.42 14.79 8.60005 14.79 6.87005 15.94Z" fill="#1F7BF4"/>
</svg>
