<svg width="20" height="21" viewBox="0 0 20 21" fill="none" xmlns="http://www.w3.org/2000/svg">
<path d="M19.25 4.33V6.39H0.75V4.33C0.75 2.62 2.13 1.25 3.83 1.25H16.16C17.87 1.25 19.25 2.63 19.25 4.33Z" stroke="#84818A" stroke-width="1.5" stroke-linecap="round" stroke-linejoin="round"/>
<path d="M19.25 6.38989V16.6699C19.25 18.3799 17.87 19.7499 16.17 19.7499H3.84001C2.13001 19.7499 0.76001 18.3699 0.76001 16.6699V6.38989H19.25Z" stroke="#84818A" stroke-width="1.5" stroke-linecap="round" stroke-linejoin="round"/>
<path d="M7.94 3.82007H8.97" stroke="#84818A" stroke-width="1.5" stroke-linecap="round" stroke-linejoin="round"/>
<path d="M3.82999 3.82007H4.85999" stroke="#84818A" stroke-width="1.5" stroke-linecap="round" stroke-linejoin="round"/>
<path d="M9.99999 16.67C10.4728 16.67 10.9409 16.5769 11.3777 16.3959C11.8144 16.215 12.2113 15.9498 12.5456 15.6156C12.8799 15.2813 13.145 14.8844 13.326 14.4476C13.5069 14.0109 13.6 13.5427 13.6 13.07C13.6 12.5972 13.5069 12.1291 13.326 11.6923C13.145 11.2555 12.8799 10.8587 12.5456 10.5244C12.2113 10.1901 11.8144 9.92492 11.3777 9.744C10.9409 9.56309 10.4728 9.46997 9.99999 9.46997C9.04521 9.46997 8.12954 9.84926 7.45441 10.5244C6.77928 11.1995 6.39999 12.1152 6.39999 13.07C6.39999 14.0247 6.77928 14.9404 7.45441 15.6156C8.12954 16.2907 9.04521 16.67 9.99999 16.67Z" stroke="#84818A" stroke-width="1.5" stroke-linecap="round" stroke-linejoin="round"/>
<path d="M6.92001 13.3801C7.22001 13.5001 7.58001 13.5901 8.09001 13.5901C9.85001 13.5901 9.85001 12.5601 11.62 12.5601C12.31 12.5601 12.73 12.7201 13.09 12.9101" stroke="#84818A" stroke-width="1.5" stroke-linecap="round" stroke-linejoin="round"/>
</svg>
