<svg width="20" height="21" viewBox="0 0 20 21" fill="none" xmlns="http://www.w3.org/2000/svg">
<path d="M9.47 12.4201C9.94 12.1401 10.53 11.8001 11.61 11.8001C12.01 11.8001 12.33 11.8501 12.6 11.9201C12.3517 11.3541 11.9255 10.8847 11.3861 10.5831C10.8467 10.2815 10.2235 10.1642 9.61136 10.2491C8.99919 10.3339 8.43146 10.6163 7.99443 11.0533C7.5574 11.4902 7.27495 12.0579 7.19 12.6701C7.19 12.6801 7.2 12.6801 7.2 12.6801C7.46 12.7801 7.73 12.8301 8.09 12.8301C8.77 12.8301 9.06 12.6601 9.47 12.4201Z" fill="#1F7BF4"/>
<path d="M11.61 13.2998C10.93 13.2998 10.64 13.4698 10.23 13.7098C9.76 13.9898 9.17 14.3298 8.09 14.3298C7.85 14.3298 7.64 14.3098 7.43 14.2698C7.65816 14.7592 8.0211 15.1734 8.47629 15.4639C8.93147 15.7544 9.46003 15.909 10 15.9098C11.39 15.9098 12.55 14.8998 12.8 13.5798C12.77 13.5698 12.75 13.5698 12.73 13.5598C12.49 13.4398 12.19 13.2998 11.61 13.2998Z" fill="#1F7BF4"/>
<path d="M1.5 7.12988H0V16.6599C0 18.7799 1.72 20.4999 3.83 20.4999H16.17C18.28 20.4999 20 18.7799 20 16.6599V7.12988H1.5ZM10 17.4099C7.6 17.4099 5.65 15.4599 5.65 13.0699C5.65 10.6699 7.6 8.71988 10 8.71988C12.4 8.71988 14.35 10.6699 14.35 13.0699C14.35 15.4599 12.4 17.4099 10 17.4099Z" fill="#1F7BF4"/>
<path d="M16.17 0.5H3.83C1.72 0.5 0 2.22 0 4.33V5.63H20V4.33C20 2.22 18.28 0.5 16.17 0.5ZM4.86 4.57H3.83C3.63109 4.57 3.44032 4.49098 3.29967 4.35033C3.15902 4.20968 3.08 4.01891 3.08 3.82C3.08 3.62109 3.15902 3.43032 3.29967 3.28967C3.44032 3.14902 3.63109 3.07 3.83 3.07H4.86C5.28 3.07 5.61 3.4 5.61 3.82C5.61 4.23 5.28 4.57 4.86 4.57ZM8.97 4.57H7.94C7.74109 4.57 7.55032 4.49098 7.40967 4.35033C7.26902 4.20968 7.19 4.01891 7.19 3.82C7.19 3.62109 7.26902 3.43032 7.40967 3.28967C7.55032 3.14902 7.74109 3.07 7.94 3.07H8.97C9.39 3.07 9.72 3.4 9.72 3.82C9.72 4.23 9.39 4.57 8.97 4.57Z" fill="#1F7BF4"/>
</svg>
