<svg width="12" height="12" viewBox="0 0 12 12" fill="none" xmlns="http://www.w3.org/2000/svg">
<path fill-rule="evenodd" clip-rule="evenodd" d="M7.45832 5.12465C7.45832 4.3189 6.80544 3.66602 6.00029 3.66602C5.19454 3.66602 4.54166 4.3189 4.54166 5.12465C4.54166 5.92979 5.19454 6.58268 6.00029 6.58268C6.80544 6.58268 7.45832 5.92979 7.45832 5.12465Z" stroke="url(#paint0_linear_967_3593)" stroke-width="1.5" stroke-linecap="round" stroke-linejoin="round"/>
<path fill-rule="evenodd" clip-rule="evenodd" d="M5.99972 11.25C5.3006 11.25 1.625 8.27405 1.625 5.16192C1.625 2.72554 3.58331 0.75 5.99972 0.75C8.41612 0.75 10.375 2.72554 10.375 5.16192C10.375 8.27405 6.69883 11.25 5.99972 11.25Z" stroke="url(#paint1_linear_967_3593)" stroke-width="1.5" stroke-linecap="round" stroke-linejoin="round"/>
<defs>
<linearGradient id="paint0_linear_967_3593" x1="4.3861" y1="6.14337" x2="4.69174" y2="5.04763" gradientUnits="userSpaceOnUse">
<stop offset="1" stop-color="#031A49"/>
</linearGradient>
<linearGradient id="paint1_linear_967_3593" x1="1.15833" y1="9.66846" x2="2.43804" y2="5.84524" gradientUnits="userSpaceOnUse">
<stop offset="1" stop-color="#031A49"/>
</linearGradient>
</defs>
</svg>
