<svg width="18" height="18" viewBox="0 0 18 18" fill="none" xmlns="http://www.w3.org/2000/svg">
<path d="M17.1499 9.44217L14.4166 12.1672C14.2983 12.2822 14.1399 12.3466 13.9749 12.3466C13.8099 12.3466 13.6515 12.2822 13.5332 12.1672C13.4162 12.05 13.3505 11.8911 13.3505 11.7255C13.3505 11.5599 13.4162 11.401 13.5332 11.2838L15.1999 9.61717H8.3999C8.31783 9.61717 8.23655 9.601 8.16073 9.56959C8.0849 9.53818 8.016 9.49215 7.95796 9.43411C7.89992 9.37607 7.85389 9.30717 7.82248 9.23135C7.79107 9.15552 7.7749 9.07424 7.7749 8.99217C7.7749 8.91009 7.79107 8.82882 7.82248 8.75299C7.85389 8.67716 7.89992 8.60826 7.95796 8.55023C8.016 8.49219 8.0849 8.44615 8.16073 8.41474C8.23655 8.38333 8.31783 8.36717 8.3999 8.36717H15.1916L13.5249 6.7005C13.4079 6.58331 13.3421 6.42446 13.3421 6.25883C13.3421 6.09321 13.4079 5.93436 13.5249 5.81717C13.5824 5.7582 13.651 5.71134 13.7269 5.67934C13.8027 5.64734 13.8842 5.63086 13.9666 5.63086C14.0489 5.63086 14.1304 5.64734 14.2062 5.67934C14.2821 5.71134 14.3508 5.7582 14.4082 5.81717L17.1416 8.53383C17.2034 8.59463 17.2522 8.66733 17.2852 8.74754C17.3181 8.82775 17.3345 8.9138 17.3332 9.0005C17.3266 9.16484 17.2616 9.32143 17.1499 9.44217Z" fill="#84818A"/>
<path d="M6.9415 9.00006C6.9415 8.61329 7.09515 8.24235 7.36864 7.96886C7.64213 7.69537 8.01306 7.54173 8.39984 7.54173H13.1665L12.9498 7.33339C12.8115 7.19937 12.7018 7.03871 12.6273 6.86111C12.5529 6.6835 12.5152 6.49264 12.5165 6.30006C12.5155 6.10827 12.5525 5.91819 12.6255 5.74081C12.6984 5.56344 12.8058 5.4023 12.9415 5.26673C13.0082 5.19089 13.0832 5.12339 13.1665 5.06673V3.66673C13.1339 2.84219 12.7766 2.064 12.1724 1.50196C11.5682 0.93993 10.7662 0.639678 9.9415 0.666727H3.89984C3.07428 0.639635 2.27141 0.939628 1.6659 1.50144C1.06039 2.06326 0.701209 2.84145 0.666504 3.66673V14.3334C0.701209 15.1587 1.06039 15.9369 1.6659 16.4987C2.27141 17.0605 3.07428 17.3605 3.89984 17.3334H9.9415C10.7662 17.3604 11.5682 17.0602 12.1724 16.4982C12.7766 15.9361 13.1339 15.1579 13.1665 14.3334V12.9334C12.9656 12.8005 12.801 12.6197 12.6876 12.4073C12.5741 12.1949 12.5153 11.9576 12.5165 11.7167C12.513 11.5214 12.5496 11.3274 12.6242 11.1467C12.6987 10.9661 12.8096 10.8027 12.9498 10.6667L13.1665 10.4501H8.39984C8.0145 10.4501 7.64483 10.2976 7.37157 10.0259C7.09832 9.75418 6.94371 9.38539 6.9415 9.00006Z" fill="#84818A"/>
</svg>
