<svg width="20" height="20" viewBox="0 0 20 20" fill="none" xmlns="http://www.w3.org/2000/svg">
<path d="M19.78 10.5306L16.5 13.8006C16.3581 13.9387 16.168 14.0159 15.97 14.0159C15.772 14.0159 15.5819 13.9387 15.44 13.8006C15.2995 13.66 15.2207 13.4694 15.2207 13.2706C15.2207 13.0719 15.2995 12.8812 15.44 12.7406L17.44 10.7406H9.28C9.18151 10.7406 9.08398 10.7212 8.99299 10.6835C8.90199 10.6458 8.81931 10.5906 8.74967 10.5209C8.68003 10.4513 8.62478 10.3686 8.58709 10.2776C8.5494 10.1866 8.53 10.0891 8.53 9.9906C8.53 9.89211 8.5494 9.79458 8.58709 9.70359C8.62478 9.61259 8.68003 9.52992 8.74967 9.46027C8.81931 9.39063 8.90199 9.33538 8.99299 9.29769C9.08398 9.26 9.18151 9.2406 9.28 9.2406H17.43L15.43 7.2406C15.2895 7.09998 15.2107 6.90935 15.2107 6.7106C15.2107 6.51185 15.2895 6.32123 15.43 6.1806C15.4989 6.10984 15.5814 6.05361 15.6724 6.01521C15.7634 5.97681 15.8612 5.95703 15.96 5.95703C16.0588 5.95703 16.1566 5.97681 16.2476 6.01521C16.3386 6.05361 16.4211 6.10984 16.49 6.1806L19.77 9.4406C19.8442 9.51356 19.9028 9.6008 19.9423 9.69705C19.9819 9.7933 20.0015 9.89656 20 10.0006C19.992 10.1978 19.914 10.3857 19.78 10.5306Z" fill="url(#paint0_linear_967_3376)"/>
<path d="M7.53 10.0001C7.53 9.53594 7.71437 9.09082 8.04256 8.76263C8.37075 8.43445 8.81587 8.25007 9.28 8.25007H15L14.74 8.00007C14.574 7.83925 14.4424 7.64645 14.353 7.43333C14.2636 7.2202 14.2184 6.99117 14.22 6.76007C14.2188 6.52993 14.2632 6.30183 14.3508 6.08898C14.4383 5.87613 14.5672 5.68276 14.73 5.52007C14.81 5.42907 14.9 5.34807 15 5.28007V3.60007C14.9609 2.61063 14.5321 1.6768 13.8071 1.00236C13.082 0.327916 12.1197 -0.0323863 11.13 7.19624e-05H3.88C2.88933 -0.0324376 1.92589 0.327554 1.19927 1.00173C0.472657 1.67591 0.0416457 2.60974 0 3.60007V16.4001C0.0416457 17.3904 0.472657 18.3242 1.19927 18.9984C1.92589 19.6726 2.88933 20.0326 3.88 20.0001H11.13C12.1197 20.0325 13.082 19.6722 13.8071 18.9978C14.5321 18.3233 14.9609 17.3895 15 16.4001V14.7201C14.759 14.5606 14.5614 14.3437 14.4253 14.0888C14.2891 13.8339 14.2185 13.5491 14.22 13.2601C14.2158 13.0256 14.2597 12.7928 14.3492 12.5761C14.4386 12.3593 14.5717 12.1633 14.74 12.0001L15 11.7401H9.28C8.8176 11.7401 8.37399 11.5571 8.04609 11.231C7.71818 10.905 7.53264 10.4625 7.53 10.0001Z" fill="url(#paint1_linear_967_3376)"/>
<defs>
<linearGradient id="paint0_linear_967_3376" x1="7.91826" y1="12.802" x2="8.53411" y2="9.65961" gradientUnits="userSpaceOnUse">
<stop offset="1" stop-color="#031A49"/>
</linearGradient>
<linearGradient id="paint1_linear_967_3376" x1="-0.800002" y1="16.989" x2="1.8468" y2="9.87373" gradientUnits="userSpaceOnUse">
<stop offset="1" stop-color="#031A49"/>
</linearGradient>
</defs>
</svg>
