<svg width="16" height="16" viewBox="0 0 16 16" fill="none" xmlns="http://www.w3.org/2000/svg">
<path d="M12.6875 0.5H3.3125C1.4375 0.5 0.5 1.4375 0.5 3.3125V12.6875C0.5 14.5625 1.4375 15.5 3.3125 15.5H12.6875C14.5625 15.5 15.5 14.5625 15.5 12.6875V3.3125C15.5 1.4375 14.5625 0.5 12.6875 0.5ZM12.7917 8.48C12.7917 8.64576 12.7258 8.80473 12.6086 8.92194C12.4914 9.03915 12.3324 9.105 12.1667 9.105C12.0009 9.105 11.8419 9.03915 11.7247 8.92194C11.6075 8.80473 11.5417 8.64576 11.5417 8.48V7.58833L9.65167 9.47833C9.39545 9.72276 9.05494 9.85913 8.70083 9.85913C8.34672 9.85913 8.00622 9.72276 7.75 9.47833L6.52167 8.25C6.50255 8.23458 6.47873 8.22617 6.45417 8.22617C6.42961 8.22617 6.40578 8.23458 6.38667 8.25L4.275 10.3617C4.15652 10.4721 3.99982 10.5322 3.8379 10.5293C3.67598 10.5265 3.52149 10.4609 3.40698 10.3464C3.29247 10.2318 3.22688 10.0774 3.22402 9.91544C3.22116 9.75352 3.28127 9.59681 3.39167 9.47833L5.5 7.36667C5.6249 7.24171 5.7732 7.14259 5.93642 7.07497C6.09963 7.00734 6.27458 6.97253 6.45125 6.97253C6.62792 6.97253 6.80287 7.00734 6.96608 7.07497C7.1293 7.14259 7.2776 7.24171 7.4025 7.36667L8.63 8.59417C8.64795 8.61198 8.67221 8.62197 8.6975 8.62197C8.72279 8.62197 8.74705 8.61198 8.765 8.59417L10.6542 6.705H9.76667C9.60091 6.705 9.44194 6.63915 9.32473 6.52194C9.20751 6.40473 9.14167 6.24576 9.14167 6.08C9.14167 5.91424 9.20751 5.75527 9.32473 5.63806C9.44194 5.52085 9.60091 5.455 9.76667 5.455H12.1667C12.3322 5.45566 12.4908 5.52172 12.6079 5.63879C12.7249 5.75585 12.791 5.91444 12.7917 6.08V8.48Z" fill="#84818A"/>
</svg>
