<svg width="16" height="16" viewBox="0 0 16 16" fill="none" xmlns="http://www.w3.org/2000/svg">
<path d="M1.58333 9.25017H7.375V15.2502C7.375 15.3165 7.34866 15.3801 7.30178 15.4269C7.25489 15.4738 7.1913 15.5002 7.125 15.5002H3.83333C3.49375 15.5486 3.14754 15.5174 2.82213 15.4089C2.49672 15.3003 2.20103 15.1176 1.95847 14.875C1.71591 14.6325 1.53315 14.3368 1.42465 14.0114C1.31615 13.686 1.28488 13.3398 1.33333 13.0002V9.50017C1.33333 9.46734 1.3398 9.43483 1.35236 9.4045C1.36493 9.37416 1.38334 9.3466 1.40656 9.32339C1.42977 9.30017 1.45733 9.28176 1.48766 9.2692C1.51799 9.25663 1.5505 9.25017 1.58333 9.25017ZM14.4167 9.25017H8.625V15.2502C8.625 15.283 8.63147 15.3155 8.64403 15.3458C8.65659 15.3762 8.67501 15.4037 8.69822 15.4269C8.72144 15.4502 8.749 15.4686 8.77933 15.4811C8.80966 15.4937 8.84217 15.5002 8.875 15.5002H12.1667C12.5063 15.5486 12.8525 15.5174 13.1779 15.4089C13.5033 15.3003 13.799 15.1176 14.0415 14.875C14.2841 14.6325 14.4668 14.3368 14.5754 14.0114C14.6839 13.686 14.7151 13.3398 14.6667 13.0002V9.50017C14.6667 9.46734 14.6602 9.43483 14.6476 9.4045C14.6351 9.37416 14.6167 9.3466 14.5934 9.32339C14.5702 9.30017 14.5427 9.28176 14.5123 9.2692C14.482 9.25663 14.4495 9.25017 14.4167 9.25017ZM15.5 5.0835V7.75017C15.5 7.81647 15.4737 7.88006 15.4268 7.92694C15.3799 7.97383 15.3163 8.00017 15.25 8.00017H8.625V5.0835H7.375V8.00017H0.75C0.683696 8.00017 0.620107 7.97383 0.573223 7.92694C0.526339 7.88006 0.5 7.81647 0.5 7.75017V5.0835C0.5 4.75198 0.631696 4.43404 0.866117 4.19962C1.10054 3.9652 1.41848 3.8335 1.75 3.8335H2.6375C2.49062 3.56002 2.40319 3.25859 2.38093 2.94897C2.35867 2.63934 2.40208 2.32851 2.50833 2.03683C2.64015 1.6522 2.87239 1.3098 3.181 1.04508C3.48961 0.780358 3.86338 0.602947 4.26359 0.531216C4.66381 0.459485 5.07592 0.496041 5.45726 0.6371C5.8386 0.778158 6.1753 1.01859 6.4325 1.3335C6.45917 1.36683 7.39667 2.6135 8 3.41683L9.56167 1.341C9.81305 1.0303 10.1417 0.791136 10.5147 0.647485C10.8876 0.503834 11.2918 0.460742 11.6866 0.522528C12.0815 0.584315 12.4532 0.748809 12.7644 0.999522C13.0757 1.25023 13.3155 1.57836 13.46 1.951C13.5837 2.25252 13.6391 2.5777 13.6223 2.90318C13.6054 3.22866 13.5167 3.54637 13.3625 3.8335H14.25C14.5815 3.8335 14.8995 3.9652 15.1339 4.19962C15.3683 4.43404 15.5 4.75198 15.5 5.0835ZM6.75 3.8335C6.18417 3.0835 5.5 2.17683 5.45667 2.11767C5.36073 2.00138 5.23999 1.90802 5.1033 1.84443C4.9666 1.78084 4.81742 1.74863 4.66667 1.75017C4.3904 1.75017 4.12545 1.85991 3.9301 2.05526C3.73475 2.25061 3.625 2.51557 3.625 2.79183C3.625 3.0681 3.73475 3.33305 3.9301 3.5284C4.12545 3.72375 4.3904 3.8335 4.66667 3.8335H6.75ZM12.375 2.79183C12.3746 2.5157 12.2647 2.251 12.0694 2.05575C11.8742 1.8605 11.6095 1.75061 11.3333 1.75017C11.1798 1.74921 11.028 1.78297 10.8893 1.84892C10.7507 1.91486 10.6287 2.01129 10.5325 2.131L9.25 3.8335H11.3333C11.6095 3.83306 11.8742 3.72317 12.0694 3.52792C12.2647 3.33266 12.3746 3.06796 12.375 2.79183Z" fill="#84818A"/>
</svg>
