<svg width="15" height="15" viewBox="0 0 15 15" fill="none" xmlns="http://www.w3.org/2000/svg">
<path d="M13.75 0H3.75C3.58424 0 3.42527 0.065848 3.30806 0.183058C3.19085 0.300269 3.125 0.45924 3.125 0.625V12.8125C3.125 13.0611 3.02623 13.2996 2.85041 13.4754C2.6746 13.6512 2.43614 13.75 2.1875 13.75C1.93886 13.75 1.7004 13.6512 1.52459 13.4754C1.34877 13.2996 1.25 13.0611 1.25 12.8125V8.75H2.5V7.5H0.625C0.45924 7.5 0.300269 7.56585 0.183058 7.68306C0.065848 7.80027 0 7.95924 0 8.125L0 12.8125C0 13.3927 0.230468 13.9491 0.640704 14.3593C1.05094 14.7695 1.60734 15 2.1875 15H12.5C12.9965 14.9975 13.472 14.7992 13.8231 14.4481C14.1742 14.097 14.3725 13.6215 14.375 13.125V0.625C14.375 0.45924 14.3092 0.300269 14.1919 0.183058C14.0747 0.065848 13.9158 0 13.75 0ZM11.5625 11.875H5.9375C5.85462 11.875 5.77513 11.8421 5.71653 11.7835C5.65792 11.7249 5.625 11.6454 5.625 11.5625V10.9375C5.625 10.8546 5.65792 10.7751 5.71653 10.7165C5.77513 10.6579 5.85462 10.625 5.9375 10.625H11.5625C11.6454 10.625 11.7249 10.6579 11.7835 10.7165C11.8421 10.7751 11.875 10.8546 11.875 10.9375V11.5625C11.875 11.6454 11.8421 11.7249 11.7835 11.7835C11.7249 11.8421 11.6454 11.875 11.5625 11.875ZM11.5625 8.75H5.9375C5.85462 8.75 5.77513 8.71708 5.71653 8.65847C5.65792 8.59987 5.625 8.52038 5.625 8.4375V7.8125C5.625 7.72962 5.65792 7.65013 5.71653 7.59153C5.77513 7.53292 5.85462 7.5 5.9375 7.5H11.5625C11.6454 7.5 11.7249 7.53292 11.7835 7.59153C11.8421 7.65013 11.875 7.72962 11.875 7.8125V8.4375C11.875 8.52038 11.8421 8.59987 11.7835 8.65847C11.7249 8.71708 11.6454 8.75 11.5625 8.75ZM11.5625 5.625H5.9375C5.85462 5.625 5.77513 5.59208 5.71653 5.53347C5.65792 5.47487 5.625 5.39538 5.625 5.3125V2.8125C5.625 2.72962 5.65792 2.65013 5.71653 2.59153C5.77513 2.53292 5.85462 2.5 5.9375 2.5H11.5625C11.6454 2.5 11.7249 2.53292 11.7835 2.59153C11.8421 2.65013 11.875 2.72962 11.875 2.8125V5.3125C11.875 5.39538 11.8421 5.47487 11.7835 5.53347C11.7249 5.59208 11.6454 5.625 11.5625 5.625Z" fill="#84818A"/>
</svg>
