<svg width="20" height="21" viewBox="0 0 20 21" fill="none" xmlns="http://www.w3.org/2000/svg">
<path d="M20 10.5C20 4.99 15.51 0.5 10 0.5C4.49 0.5 0 4.99 0 10.5C0 13.4 1.25 16.01 3.23 17.84C3.23 17.85 3.23 17.85 3.22 17.86C3.32 17.96 3.44 18.04 3.54 18.13C3.6 18.18 3.65 18.23 3.71 18.27C3.89 18.42 4.09 18.56 4.28 18.7L4.48 18.84C4.67 18.97 4.87 19.09 5.08 19.2C5.15 19.24 5.23 19.29 5.3 19.33C5.5 19.44 5.71 19.54 5.93 19.63C6.01 19.67 6.09 19.71 6.17 19.74C6.39 19.83 6.61 19.91 6.83 19.98C6.91 20.01 6.99 20.04 7.07 20.06C7.31 20.13 7.55 20.19 7.79 20.25C7.86 20.27 7.93 20.29 8.01 20.3C8.29 20.36 8.57 20.4 8.86 20.43C8.9 20.43 8.94 20.44 8.98 20.45C9.32 20.48 9.66 20.5 10 20.5C10.34 20.5 10.68 20.48 11.01 20.45C11.05 20.45 11.09 20.44 11.13 20.43C11.42 20.4 11.7 20.36 11.98 20.3C12.05 20.29 12.12 20.26 12.2 20.25C12.44 20.19 12.69 20.14 12.92 20.06C13 20.03 13.08 20 13.16 19.98C13.38 19.9 13.61 19.83 13.82 19.74C13.9 19.71 13.98 19.67 14.06 19.63C14.27 19.54 14.48 19.44 14.69 19.33C14.77 19.29 14.84 19.24 14.91 19.2C15.11 19.08 15.31 18.97 15.51 18.84C15.58 18.8 15.64 18.75 15.71 18.7C15.91 18.56 16.1 18.42 16.28 18.27C16.34 18.22 16.39 18.17 16.45 18.13C16.56 18.04 16.67 17.95 16.77 17.86C16.77 17.85 16.77 17.85 16.76 17.84C18.75 16.01 20 13.4 20 10.5ZM14.94 15.47C12.23 13.65 7.79 13.65 5.06 15.47C4.62 15.76 4.26 16.1 3.96 16.47C2.38481 14.8823 1.50064 12.7365 1.5 10.5C1.5 5.81 5.31 2 10 2C14.69 2 18.5 5.81 18.5 10.5C18.5 12.82 17.56 14.93 16.04 16.47C15.75 16.1 15.38 15.76 14.94 15.47Z" fill="#1F7BF4"/>
<path d="M10 5.42969C7.93 5.42969 6.25 7.10969 6.25 9.17969C6.25 11.2097 7.84 12.8597 9.95 12.9197H10.13C11.1007 12.8878 12.021 12.4798 12.6965 11.7819C13.372 11.084 13.7497 10.1509 13.75 9.17969C13.75 7.10969 12.07 5.42969 10 5.42969Z" fill="#1F7BF4"/>
</svg>
