<svg width="16" height="18" viewBox="0 0 16 18" fill="none" xmlns="http://www.w3.org/2000/svg">
<path d="M13.8333 2.49967H10.35C10 1.53301 9.08333 0.833008 8 0.833008C6.91667 0.833008 6 1.53301 5.65 2.49967H2.16667C1.25 2.49967 0.5 3.24967 0.5 4.16634V15.833C0.5 16.7497 1.25 17.4997 2.16667 17.4997H13.8333C14.75 17.4997 15.5 16.7497 15.5 15.833V4.16634C15.5 3.24967 14.75 2.49967 13.8333 2.49967ZM8 2.49967C8.45833 2.49967 8.83333 2.87467 8.83333 3.33301C8.83333 3.79134 8.45833 4.16634 8 4.16634C7.54167 4.16634 7.16667 3.79134 7.16667 3.33301C7.16667 2.87467 7.54167 2.49967 8 2.49967ZM11.3333 12.4997H8V14.9997L3.83333 10.833L8 6.66634V9.16634H11.3333V12.4997Z" fill="#84818A"/>
</svg>
