<svg width="19" height="18" viewBox="0 0 19 18" fill="none" xmlns="http://www.w3.org/2000/svg">
<path fill-rule="evenodd" clip-rule="evenodd" d="M9.56556 1.5C13.5931 1.5 16.8691 4.776 16.8691 8.8035C16.8691 10.7037 16.1398 12.4367 14.9465 13.7374L17.2946 16.0805C17.5144 16.3003 17.5151 16.6558 17.2954 16.8755C17.1859 16.9865 17.0411 17.0413 16.8971 17.0413C16.7539 17.0413 16.6099 16.9865 16.4996 16.877L14.1232 14.5073C12.8731 15.5084 11.2881 16.1077 9.56556 16.1077C5.53806 16.1077 2.26131 12.831 2.26131 8.8035C2.26131 4.776 5.53806 1.5 9.56556 1.5ZM9.56556 2.625C6.15831 2.625 3.38631 5.39625 3.38631 8.8035C3.38631 12.2108 6.15831 14.9827 9.56556 14.9827C12.9721 14.9827 15.7441 12.2108 15.7441 8.8035C15.7441 5.39625 12.9721 2.625 9.56556 2.625Z" fill="#1C1C1E"/>
</svg>
