<svg width="18" height="18" viewBox="0 0 18 18" fill="none" xmlns="http://www.w3.org/2000/svg">
<path d="M15 11.9993C14.4943 11.9997 13.997 12.1283 13.5545 12.3731C13.112 12.618 12.7389 12.971 12.47 13.3993L5.8 10.0643C6.072 9.38033 6.072 8.61823 5.8 7.93428L12.47 4.59928C12.8575 5.20614 13.4511 5.65276 14.1415 5.85709C14.8319 6.06142 15.5729 6.00973 16.2283 5.71152C16.8837 5.41331 17.4095 4.88861 17.709 4.23382C18.0085 3.57904 18.0617 2.83815 17.8588 2.1473C17.6558 1.45645 17.2104 0.862031 16.6043 0.473268C15.9983 0.0845053 15.2723 -0.0724896 14.5597 0.0311292C13.8472 0.134748 13.1959 0.49202 12.7257 1.0373C12.2554 1.58258 11.9978 2.27924 12 2.99928C12 3.05028 12.013 3.09928 12.015 3.14828L4.908 6.69928C4.37415 6.24876 3.69854 6.0009 3 5.99928C2.20435 5.99928 1.44129 6.31535 0.87868 6.87796C0.316071 7.44057 0 8.20363 0 8.99928C0 9.79493 0.316071 10.558 0.87868 11.1206C1.44129 11.6832 2.20435 11.9993 3 11.9993C3.69854 11.9977 4.37415 11.7498 4.908 11.2993L12.015 14.8533C12.015 14.9033 12 14.9533 12 15.0023C12 15.5956 12.1759 16.1756 12.5056 16.669C12.8352 17.1623 13.3038 17.5469 13.8519 17.7739C14.4001 18.001 15.0033 18.0604 15.5853 17.9446C16.1672 17.8289 16.7018 17.5432 17.1213 17.1236C17.5409 16.704 17.8266 16.1695 17.9424 15.5876C18.0581 15.0056 17.9987 14.4024 17.7716 13.8542C17.5446 13.3061 17.1601 12.8375 16.6667 12.5079C16.1734 12.1782 15.5933 12.0023 15 12.0023V11.9993Z" fill="url(#paint0_linear_972_9344)"/>
<defs>
<linearGradient id="paint0_linear_972_9344" x1="-0.960002" y1="15.2907" x2="0.92667" y2="8.52772" gradientUnits="userSpaceOnUse">
<stop offset="1" stop-color="#031A49"/>
</linearGradient>
</defs>
</svg>
