<svg width="20" height="19" viewBox="0 0 20 19" fill="none" xmlns="http://www.w3.org/2000/svg">
<path d="M17.47 10.8401C17.0427 10.9317 16.607 10.9786 16.17 10.9801C15.0796 10.9902 14.0085 10.692 13.08 10.1201C12.151 10.6822 11.0858 10.9793 10 10.9793C8.91417 10.9793 7.84903 10.6822 6.92 10.1201C5.992 10.6921 4.92 10.9901 3.83 10.9801C3.39299 10.9786 2.95731 10.9317 2.53 10.8401C2.07969 10.7494 1.64281 10.6016 1.23 10.4001L1 10.2901V15.5001C0.999995 16.2436 1.29468 16.9569 1.81949 17.4836C2.34431 18.0103 3.05648 18.3075 3.8 18.3101H7.19V13.4101C7.19 13.2112 7.26902 13.0204 7.40967 12.8798C7.55032 12.7391 7.74109 12.6601 7.94 12.6601H12.06C12.2589 12.6601 12.4497 12.7391 12.5903 12.8798C12.731 13.0204 12.81 13.2112 12.81 13.4101V18.2701H16.17C16.9118 18.2755 17.6257 17.9873 18.1559 17.4683C18.686 16.9494 18.9895 16.2419 19 15.5001V10.2901L18.8 10.4001C18.3777 10.604 17.9306 10.7519 17.47 10.8401Z" fill="#1F7BF4"/>
<path d="M3.52 0.730355H6.39V8.66036C5.65035 9.21059 4.75185 9.50541 3.83 9.50036C3.38955 9.50319 2.95122 9.43913 2.53 9.31036C2.30937 9.25135 2.09502 9.17097 1.89 9.07036C1.55387 8.91366 1.25155 8.69286 1 8.42036C0.624249 8.02764 0.350335 7.54892 0.202171 7.02599C0.0540062 6.50306 0.0360948 5.9518 0.15 5.42036L0.73 2.69036C0.901959 2.09455 1.27234 1.5754 1.77977 1.21893C2.28719 0.862458 2.90119 0.690077 3.52 0.730355Z" fill="#1F7BF4"/>
<path d="M7.39 0.730469H12.61V8.61047C11.857 9.17519 10.9412 9.48047 10 9.48047C9.05879 9.48047 8.14297 9.17519 7.39 8.61047V0.730469Z" fill="#1F7BF4"/>
<path d="M19 8.40989C18.7559 8.67517 18.4642 8.89226 18.14 9.04989C17.935 9.14989 17.72 9.23089 17.5 9.28989C17.079 9.41889 16.64 9.48289 16.2 9.47989C15.2804 9.49073 14.3821 9.203 13.64 8.65989V0.729892H16.51C17.1212 0.695465 17.7262 0.868255 18.2271 1.22031C18.728 1.57237 19.0954 2.0831 19.27 2.66989L19.85 5.36989C19.8549 5.40639 19.8549 5.44339 19.85 5.47989C19.9563 6.0006 19.9345 6.53933 19.7864 7.04973C19.6383 7.56013 19.3684 8.02691 19 8.40989Z" fill="#1F7BF4"/>
</svg>
