<svg width="20" height="21" viewBox="0 0 20 21" fill="none" xmlns="http://www.w3.org/2000/svg">
<path d="M19.545 6.371L18.506 3.3C18.017 1.854 17.412 0.75 14.5 0.75H5.5C2.588 0.75 1.983 1.85 1.5 3.298L0.454 6.371C0.231536 7.01302 0.18847 7.70357 0.329442 8.36825C0.470415 9.03294 0.790081 9.64656 1.254 10.143V16.5C1.19539 17.0063 1.25193 17.5193 1.4194 18.0006C1.58687 18.482 1.86094 18.9193 2.22114 19.2799C2.58134 19.6405 3.01835 19.915 3.49954 20.083C3.98073 20.251 4.49365 20.3081 5 20.25H15C15.5067 20.3087 16.02 20.2521 16.5017 20.0844C16.9834 19.9167 17.421 19.6423 17.7816 19.2816C18.1423 18.921 18.4167 18.4834 18.5844 18.0017C18.7521 17.52 18.8087 17.0067 18.75 16.5V10.143C19.2134 9.64622 19.5323 9.03236 19.6724 8.36763C19.8125 7.7029 19.7684 7.01253 19.545 6.371ZM1.875 6.852L2.916 3.779C3.26 2.761 3.433 2.25 5.5 2.25H14.5C16.567 2.25 16.74 2.761 17.085 3.779L18.124 6.852C18.3 7.31711 18.3102 7.82866 18.153 8.30044C17.9958 8.77222 17.6808 9.17539 17.261 9.442C16.9526 9.59579 16.6167 9.68693 16.2729 9.71015C15.929 9.73336 15.584 9.6882 15.2577 9.57727C14.9314 9.46633 14.6304 9.29183 14.3719 9.06384C14.1135 8.83586 13.9028 8.5589 13.752 8.249C13.7002 8.10287 13.6044 7.97637 13.4778 7.88684C13.3512 7.79732 13.2 7.74917 13.045 7.749C12.8901 7.74923 12.7391 7.79742 12.6126 7.88695C12.4862 7.97648 12.3906 8.10295 12.339 8.249C12.1333 8.6955 11.8039 9.07369 11.3899 9.33878C10.9759 9.60387 10.4946 9.74476 10.003 9.74476C9.51139 9.74476 9.03009 9.60387 8.61608 9.33878C8.20207 9.07369 7.87271 8.6955 7.667 8.249C7.61536 8.10295 7.51977 7.97648 7.39336 7.88695C7.26694 7.79742 7.11591 7.74923 6.961 7.749C6.80843 7.76008 6.66174 7.81246 6.53667 7.90055C6.41159 7.98863 6.31284 8.10908 6.251 8.249C6.04947 8.70215 5.71915 9.08604 5.30114 9.35292C4.88313 9.6198 4.39588 9.75789 3.9 9.75C3.49297 9.75114 3.09285 9.6449 2.74 9.442C2.32016 9.17542 2.00495 8.77237 1.84741 8.30066C1.68987 7.82895 1.69962 7.31737 1.875 6.852ZM11.275 18.752H8.775V16C8.775 15.6685 8.9067 15.3505 9.14112 15.1161C9.37554 14.8817 9.69348 14.75 10.025 14.75C10.3565 14.75 10.6745 14.8817 10.9089 15.1161C11.1433 15.3505 11.275 15.6685 11.275 16V18.752ZM14.995 18.752H12.78V16C12.78 15.2707 12.4903 14.5712 11.9745 14.0555C11.4588 13.5397 10.7593 13.25 10.03 13.25C9.30065 13.25 8.60118 13.5397 8.08546 14.0555C7.56973 14.5712 7.28 15.2707 7.28 16V18.75H5C3.423 18.75 2.75 18.077 2.75 16.5V11.054C3.48797 11.2581 4.26724 11.2599 5.00618 11.0594C5.74511 10.8588 6.4165 10.4632 6.95 9.914C7.33837 10.3356 7.80992 10.672 8.33488 10.9022C8.85984 11.1323 9.42681 11.2512 10 11.2512C10.5732 11.2512 11.1402 11.1323 11.6651 10.9022C12.1901 10.672 12.6616 10.3356 13.05 9.914C13.4405 10.3328 13.9124 10.6674 14.4369 10.8972C14.9614 11.1269 15.5274 11.247 16.1 11.25C16.4901 11.2477 16.8775 11.186 17.249 11.067V16.5C17.25 18.077 16.577 18.75 15 18.75L14.995 18.752Z" fill="#84818A"/>
</svg>
