<svg width="18" height="18" viewBox="0 0 18 18" fill="none" xmlns="http://www.w3.org/2000/svg">
<path d="M13.2451 17.0025C12.8476 17.0025 12.3376 16.875 11.7001 16.5L9.45759 15.1725C9.22509 15.0375 8.77509 15.0375 8.55009 15.1725L6.30009 16.5C4.97259 17.2875 4.19259 16.9725 3.84009 16.7175C3.49509 16.4625 2.95509 15.81 3.30759 14.31L3.84009 12.0075C3.90009 11.7675 3.78009 11.355 3.60009 11.175L1.74009 9.31499C0.810088 8.38499 0.885088 7.58999 1.01259 7.19999C1.14009 6.80999 1.54509 6.11999 2.83509 5.90249L5.22759 5.50499C5.45259 5.46749 5.77509 5.22749 5.87259 5.02499L7.20009 2.37749C7.80009 1.16999 8.58759 0.98999 9.00009 0.98999C9.41259 0.98999 10.2001 1.16999 10.8001 2.37749L12.1201 5.01749C12.2251 5.21999 12.5476 5.45999 12.7726 5.49749L15.1651 5.89499C16.4626 6.11249 16.8676 6.80249 16.9876 7.19249C17.1076 7.58249 17.1826 8.37749 16.2601 9.30749L14.4001 11.175C14.2201 11.355 14.1076 11.76 14.1601 12.0075L14.6926 14.31C15.0376 15.81 14.5051 16.4625 14.1601 16.7175C13.9726 16.8525 13.6726 17.0025 13.2451 17.0025ZM9.00009 13.9425C9.36759 13.9425 9.73509 14.0325 10.0276 14.205L12.2701 15.5325C12.9226 15.9225 13.3351 15.9225 13.4926 15.81C13.6501 15.6975 13.7626 15.3 13.5976 14.565L13.0651 12.2625C12.9226 11.64 13.1551 10.8375 13.6051 10.38L15.4651 8.51999C15.8326 8.15249 15.9976 7.79249 15.9226 7.54499C15.8401 7.29749 15.4951 7.09499 14.9851 7.01249L12.5926 6.61499C12.0151 6.51749 11.3851 6.05249 11.1226 5.52749L9.80259 2.88749C9.56259 2.40749 9.26259 2.12249 9.00009 2.12249C8.73759 2.12249 8.43759 2.40749 8.20509 2.88749L6.87759 5.52749C6.61509 6.05249 5.98509 6.51749 5.40759 6.61499L3.02259 7.01249C2.51259 7.09499 2.16759 7.29749 2.08509 7.54499C2.00259 7.79249 2.17509 8.15999 2.54259 8.51999L4.40259 10.38C4.85259 10.83 5.08509 11.64 4.94259 12.2625L4.41009 14.565C4.23759 15.3075 4.35759 15.6975 4.51509 15.81C4.67259 15.9225 5.07759 15.915 5.73759 15.5325L7.98009 14.205C8.26509 14.0325 8.63259 13.9425 9.00009 13.9425Z" fill="url(#paint0_radial_14_246)"/>
<path d="M2.625 6.75L1.5 7.875L2.625 9.375L4.125 10.5L4.5 12L4.125 13.125L3.75 15.375L4.875 16.125L6.75 15.375L8.25 14.25H9.75L11.625 15.375L13.5 16.125L13.875 15.375V14.25L13.5 12V10.5L15.75 8.625L16.125 7.875V7.125L15 6.75L12.75 6.375L11.625 5.625L10.875 4.5L9.75 2.25L9 1.875L8.25 2.25L7.875 3L6.375 5.25L2.625 6.75Z" fill="url(#paint1_radial_14_246)"/>
<defs>
<radialGradient id="paint0_radial_14_246" cx="0" cy="0" r="1" gradientUnits="userSpaceOnUse" gradientTransform="translate(0.9375 0.98999) rotate(45.6637) scale(23.0663 23.0704)">
<stop stop-color="#FFD451"/>
<stop offset="1" stop-color="#F2B600"/>
</radialGradient>
<radialGradient id="paint1_radial_14_246" cx="0" cy="0" r="1" gradientUnits="userSpaceOnUse" gradientTransform="translate(1.5 1.875) rotate(45.1119) scale(20.7234 20.7325)">
<stop stop-color="#FFD451"/>
<stop offset="1" stop-color="#F2B600"/>
</radialGradient>
</defs>
</svg>
