<svg width="18" height="21" viewBox="0 0 18 21" fill="none" xmlns="http://www.w3.org/2000/svg">
<path d="M6.021 20.2501C5.68948 20.2514 5.37101 20.121 5.13565 19.8875C4.90029 19.654 4.76733 19.3366 4.766 19.0051C4.76467 18.6735 4.8951 18.3551 5.12858 18.1197C5.36206 17.8843 5.67948 17.7514 6.011 17.7501H6.021C6.35252 17.7501 6.67046 17.8818 6.90488 18.1162C7.1393 18.3506 7.271 18.6685 7.271 19.0001C7.271 19.3316 7.1393 19.6495 6.90488 19.8839C6.67046 20.1184 6.35252 20.2501 6.021 20.2501ZM15.271 19.0001C15.271 18.6685 15.1393 18.3506 14.9049 18.1162C14.6705 17.8818 14.3525 17.7501 14.021 17.7501H14.011C13.7642 17.752 13.5235 17.827 13.3193 17.9656C13.115 18.1041 12.9564 18.3 12.8633 18.5286C12.7702 18.7572 12.7469 19.0082 12.7963 19.25C12.8456 19.4918 12.9654 19.7136 13.1406 19.8874C13.3159 20.0612 13.5386 20.1793 13.7808 20.2267C14.023 20.2741 14.2738 20.2488 14.5016 20.1539C14.7295 20.059 14.9241 19.8988 15.061 19.6935C15.1979 19.4881 15.271 19.2469 15.271 19.0001ZM17.96 6.36006L16.95 12.5401C16.9371 12.9022 16.848 13.2577 16.6885 13.5831C16.529 13.9085 16.3027 14.1967 16.0243 14.4288C15.746 14.6609 15.4219 14.8318 15.0731 14.9302C14.7243 15.0286 14.3586 15.0524 14 15.0001H5.73C5.24778 15.0012 4.78146 14.8276 4.41742 14.5114C4.05337 14.1952 3.81626 13.7577 3.75 13.2801L2.249 2.83206C2.20977 2.53171 2.06223 2.25603 1.83408 2.05679C1.60593 1.85756 1.31289 1.74848 1.01 1.75006H0.75C0.551088 1.75006 0.360322 1.67104 0.21967 1.53039C0.0790175 1.38973 0 1.19897 0 1.00006C0 0.801144 0.0790175 0.610378 0.21967 0.469726C0.360322 0.329074 0.551088 0.250056 0.75 0.250056H1.01C1.67356 0.245798 2.31594 0.48346 2.81695 0.918574C3.31796 1.35369 3.64326 1.95644 3.732 2.61406L3.941 4.00006H16C16.2925 4.00113 16.5812 4.06635 16.8458 4.19113C17.1104 4.31591 17.3444 4.49721 17.5312 4.72224C17.7181 4.94727 17.8534 5.21056 17.9275 5.49354C18.0016 5.77653 18.0127 6.07232 17.96 6.36006ZM13.214 8.56906L11.719 8.35306C11.6656 8.34511 11.6149 8.32442 11.5713 8.29274C11.5276 8.26106 11.4921 8.21932 11.468 8.17106L10.821 6.86506C10.7912 6.80548 10.7453 6.75538 10.6886 6.72036C10.632 6.68535 10.5666 6.6668 10.5 6.6668C10.4334 6.6668 10.368 6.68535 10.3114 6.72036C10.2547 6.75538 10.2088 6.80548 10.179 6.86506L9.532 8.17106C9.50776 8.21945 9.47219 8.26126 9.42831 8.29295C9.38444 8.32464 9.33356 8.34526 9.28 8.35306L7.786 8.56906C7.72448 8.57813 7.66671 8.60421 7.61921 8.64434C7.5717 8.68447 7.53634 8.73707 7.51711 8.79621C7.49789 8.85535 7.49555 8.91868 7.51037 8.97908C7.52519 9.03948 7.55658 9.09453 7.601 9.13806L8.682 10.1861C8.7216 10.2232 8.75143 10.2696 8.76887 10.3211C8.78631 10.3725 8.79082 10.4275 8.782 10.4811L8.535 11.9151C8.52368 11.9808 8.53102 12.0484 8.55619 12.1102C8.58135 12.1721 8.62334 12.2256 8.67738 12.2647C8.73142 12.3039 8.79535 12.3271 8.86192 12.3317C8.92849 12.3364 8.99504 12.3223 9.054 12.2911L10.354 11.6131C10.4019 11.5884 10.4551 11.5755 10.509 11.5755C10.5629 11.5755 10.6161 11.5884 10.664 11.6131L11.964 12.2921C12.0229 12.323 12.0894 12.3369 12.1558 12.3321C12.2222 12.3273 12.2859 12.3041 12.3398 12.2649C12.3937 12.2258 12.4355 12.1724 12.4607 12.1108C12.4858 12.0491 12.4932 11.9817 12.482 11.9161L12.235 10.4811C12.2262 10.4275 12.2307 10.3725 12.2481 10.3211C12.2656 10.2696 12.2954 10.2232 12.335 10.1861L13.4 9.13806C13.4444 9.09447 13.4758 9.03933 13.4906 8.97886C13.5054 8.91839 13.5029 8.855 13.4836 8.79583C13.4643 8.73666 13.4288 8.68408 13.3811 8.64401C13.3335 8.60394 13.2756 8.57798 13.214 8.56906Z" fill="url(#paint0_linear_967_4026)"/>
<defs>
<linearGradient id="paint0_linear_967_4026" x1="-0.959611" y1="17.2376" x2="1.33107" y2="9.84958" gradientUnits="userSpaceOnUse">
<stop offset="1" stop-color="#031A49"/>
</linearGradient>
</defs>
</svg>
