<svg width="30" height="30" viewBox="0 0 30 30" fill="none" xmlns="http://www.w3.org/2000/svg">
<rect width="30" height="30" fill="#FF0000" fill-opacity="0.01"/>
<path fill-rule="evenodd" clip-rule="evenodd" d="M15 2C7.78524 2 2 7.85006 2 15C2 22.1499 7.78524 28 15 28C22.2148 28 28 22.1499 28 15C28 7.85006 22.1499 2 15 2ZM15 26C8.95013 26 4 21.0498 4 15C4 8.95019 8.95013 4 15 4C21.0499 4 26 8.95013 26 15C26 21.0499 21.0499 26 15 26ZM13.7 8.5H15.65V15.3249L21.5 18.7699L20.525 20.3949L13.7 16.3V8.5Z" fill="white"/>
<mask id="mask0_882_4025" style="mask-type:luminance" maskUnits="userSpaceOnUse" x="2" y="2" width="26" height="26">
<path fill-rule="evenodd" clip-rule="evenodd" d="M15 2C7.78524 2 2 7.85006 2 15C2 22.1499 7.78524 28 15 28C22.2148 28 28 22.1499 28 15C28 7.85006 22.1499 2 15 2ZM15 26C8.95013 26 4 21.0498 4 15C4 8.95019 8.95013 4 15 4C21.0499 4 26 8.95013 26 15C26 21.0499 21.0499 26 15 26ZM13.7 8.5H15.65V15.3249L21.5 18.7699L20.525 20.3949L13.7 16.3V8.5Z" fill="white"/>
</mask>
<g mask="url(#mask0_882_4025)">
<rect width="30" height="30" fill="white"/>
</g>
</svg>
