<svg width="20" height="12" viewBox="0 0 20 12" fill="none" xmlns="http://www.w3.org/2000/svg">
<path d="M20 1V5.154C20 5.41922 19.8946 5.67357 19.7071 5.86111C19.5196 6.04864 19.2652 6.154 19 6.154C18.7348 6.154 18.4804 6.04864 18.2929 5.86111C18.1054 5.67357 18 5.41922 18 5.154V3.414L12.414 9C12.0389 9.37494 11.5303 9.58557 11 9.58557C10.4697 9.58557 9.96105 9.37494 9.586 9L7 6.414L1.707 11.707C1.51839 11.8892 1.26579 11.99 1.00359 11.9877C0.741397 11.9854 0.490585 11.8802 0.305177 11.6948C0.119769 11.5094 0.0145995 11.2586 0.0123211 10.9964C0.0100427 10.7342 0.110837 10.4816 0.292995 10.293L5.586 5C5.96105 4.62506 6.46967 4.41443 7 4.41443C7.53032 4.41443 8.03894 4.62506 8.41399 5L11 7.586L16.586 2H14.846C14.5808 2 14.3264 1.89464 14.1389 1.70711C13.9514 1.51957 13.846 1.26522 13.846 1C13.846 0.734784 13.9514 0.48043 14.1389 0.292893C14.3264 0.105357 14.5808 0 14.846 0H19C19.2652 0 19.5196 0.105357 19.7071 0.292893C19.8946 0.48043 20 0.734784 20 1Z" fill="#0AA630"/>
</svg>
