<svg width="20" height="12" viewBox="0 0 20 12" fill="none" xmlns="http://www.w3.org/2000/svg">
<path d="M5.72205e-06 11V6.846C5.72205e-06 6.58078 0.105362 6.32643 0.292898 6.13889C0.480434 5.95136 0.734789 5.846 1.00001 5.846C1.26522 5.846 1.51958 5.95136 1.70711 6.13889C1.89465 6.32643 2.00001 6.58078 2.00001 6.846V8.586L7.58601 3C7.96106 2.62506 8.46968 2.41443 9 2.41443C9.53033 2.41443 10.0389 2.62506 10.414 3L13 5.586L18.293 0.292999C18.4816 0.110841 18.7342 0.010047 18.9964 0.0123253C19.2586 0.0146036 19.5094 0.119774 19.6948 0.305182C19.8802 0.490589 19.9854 0.741403 19.9877 1.0036C19.99 1.2658 19.8892 1.5184 19.707 1.707L14.414 7C14.0389 7.37494 13.5303 7.58557 13 7.58557C12.4697 7.58557 11.9611 7.37494 11.586 7L9 4.414L3.41401 10H5.154C5.41922 10 5.67358 10.1054 5.86111 10.2929C6.04865 10.4804 6.15401 10.7348 6.15401 11C6.15401 11.2652 6.04865 11.5196 5.86111 11.7071C5.67358 11.8946 5.41922 12 5.154 12H1.00001C0.734789 12 0.480434 11.8946 0.292898 11.7071C0.105362 11.5196 5.72205e-06 11.2652 5.72205e-06 11Z" fill="#FC0000"/>
</svg>
