<svg width="24" height="24" viewBox="0 0 24 24" fill="none" xmlns="http://www.w3.org/2000/svg">
<path d="M21 5.5H17.441C16.36 5.5 16.274 5.242 16.019 4.475L15.819 3.868C15.6862 3.46927 15.4312 3.1225 15.0901 2.87693C14.749 2.63136 14.3393 2.49948 13.919 2.5H10.081C9.66073 2.49948 9.25097 2.63136 8.90991 2.87693C8.56884 3.1225 8.31381 3.46927 8.181 3.868L7.981 4.475C7.726 5.242 7.64 5.5 6.559 5.5H3C2.86739 5.5 2.74021 5.55268 2.64645 5.64645C2.55268 5.74022 2.5 5.86739 2.5 6C2.5 6.13261 2.55268 6.25979 2.64645 6.35355C2.74021 6.44732 2.86739 6.5 3 6.5H4.532L5.314 18.232C5.30486 18.6831 5.39077 19.131 5.56614 19.5467C5.7415 19.9624 6.0024 20.3366 6.33186 20.6448C6.66133 20.953 7.05198 21.1885 7.47841 21.3358C7.90485 21.4832 8.35752 21.5391 8.807 21.5H15.193C15.6425 21.5391 16.0951 21.4832 16.5216 21.3358C16.948 21.1885 17.3387 20.953 17.6681 20.6448C17.9976 20.3366 18.2585 19.9624 18.4339 19.5467C18.6092 19.131 18.6951 18.6831 18.686 18.232L19.468 6.5H21C21.1326 6.5 21.2598 6.44732 21.3536 6.35355C21.4473 6.25979 21.5 6.13261 21.5 6C21.5 5.86739 21.4473 5.74022 21.3536 5.64645C21.2598 5.55268 21.1326 5.5 21 5.5ZM9.132 4.184C9.19835 3.9848 9.32572 3.81153 9.49605 3.68876C9.66638 3.56599 9.87104 3.49995 10.081 3.5H13.919C14.1288 3.50016 14.3332 3.5663 14.5034 3.68905C14.6735 3.81181 14.8007 3.98496 14.867 4.184L15.067 4.791C15.143 5.03454 15.2383 5.27163 15.352 5.5H8.645C8.7593 5.27177 8.85494 5.03466 8.931 4.791L9.132 4.184ZM17.687 18.166C17.7044 18.491 17.6504 18.8159 17.5289 19.1178C17.4074 19.4198 17.2213 19.6915 16.9836 19.9139C16.746 20.1363 16.4625 20.304 16.1532 20.4052C15.8439 20.5065 15.5162 20.5388 15.193 20.5H8.807C8.48384 20.5386 8.15614 20.5062 7.84684 20.4048C7.53755 20.3035 7.25414 20.1358 7.01647 19.9135C6.77879 19.6912 6.59259 19.4195 6.4709 19.1177C6.34921 18.8158 6.29498 18.491 6.312 18.166L5.535 6.5H6.559C6.683 6.5 6.783 6.486 6.894 6.479C6.92852 6.48964 6.96404 6.49667 7 6.5H17C17.036 6.49667 17.0715 6.48964 17.106 6.479C17.217 6.486 17.317 6.5 17.441 6.5H18.465L17.687 18.166ZM14.5 11V16C14.5 16.1326 14.4473 16.2598 14.3536 16.3536C14.2598 16.4473 14.1326 16.5 14 16.5C13.8674 16.5 13.7402 16.4473 13.6464 16.3536C13.5527 16.2598 13.5 16.1326 13.5 16V11C13.5 10.8674 13.5527 10.7402 13.6464 10.6464C13.7402 10.5527 13.8674 10.5 14 10.5C14.1326 10.5 14.2598 10.5527 14.3536 10.6464C14.4473 10.7402 14.5 10.8674 14.5 11ZM10.5 11V16C10.5 16.1326 10.4473 16.2598 10.3536 16.3536C10.2598 16.4473 10.1326 16.5 10 16.5C9.86739 16.5 9.74021 16.4473 9.64645 16.3536C9.55268 16.2598 9.5 16.1326 9.5 16V11C9.5 10.8674 9.55268 10.7402 9.64645 10.6464C9.74021 10.5527 9.86739 10.5 10 10.5C10.1326 10.5 10.2598 10.5527 10.3536 10.6464C10.4473 10.7402 10.5 10.8674 10.5 11Z" fill="#425060"/>
</svg>
