<svg width="25" height="23" viewBox="0 0 25 23" fill="none" xmlns="http://www.w3.org/2000/svg">
<path d="M18.77 6.18066H3.25V16.2007C3.25 17.8507 4.59 19.1807 6.23 19.1807H18.76C20.41 19.1807 21.74 17.8407 21.74 16.2007V9.17066C21.742 8.77914 21.6666 8.39108 21.5183 8.02873C21.37 7.66638 21.1516 7.33687 20.8757 7.05909C20.5998 6.78131 20.2718 6.56073 19.9104 6.40999C19.5491 6.25925 19.1615 6.18132 18.77 6.18066Z" stroke="#C7CFDC" stroke-width="1.5" stroke-linecap="round" stroke-linejoin="round"/>
<path d="M9.47998 2.82031H14.61C16.31 2.82031 17.69 4.33031 17.69 6.18031" stroke="#C7CFDC" stroke-width="1.5" stroke-linecap="round" stroke-linejoin="round"/>
<path d="M3.25 9.86062V4.89062" stroke="#C7CFDC" stroke-width="1.5" stroke-linecap="round" stroke-linejoin="round"/>
<path d="M11.98 6.18031H4.79C3.94 6.18031 3.25 5.43031 3.25 4.50031C3.25 3.57031 3.94 2.82031 4.79 2.82031H11.98" stroke="#C7CFDC" stroke-width="1.5" stroke-linecap="round" stroke-linejoin="round"/>
<path d="M18.2099 13.1899C18.3452 13.1899 18.4749 13.1362 18.5706 13.0405C18.6662 12.9449 18.7199 12.8152 18.7199 12.6799C18.7199 12.5447 18.6662 12.4149 18.5706 12.3193C18.4749 12.2237 18.3452 12.1699 18.2099 12.1699C18.0747 12.1699 17.945 12.2237 17.8493 12.3193C17.7537 12.4149 17.7 12.5447 17.7 12.6799C17.7 12.8152 17.7537 12.9449 17.8493 13.0405C17.945 13.1362 18.0747 13.1899 18.2099 13.1899Z" fill="#C7CFDC" stroke="#C7CFDC" stroke-width="1.5" stroke-linecap="round" stroke-linejoin="round"/>
</svg>
