<svg width="13" height="14" viewBox="0 0 13 14" fill="none" xmlns="http://www.w3.org/2000/svg">
<path d="M3.375 0.25H2.75C0.875 0.25 0.25 1.36875 0.25 2.75V12.125C0.25 12.6438 0.8375 12.9375 1.25 12.625L2.31875 11.825C2.56875 11.6375 2.91875 11.6625 3.14375 11.8875L4.18125 12.9313C4.425 13.175 4.825 13.175 5.06875 12.9313L6.11875 11.8813C6.3375 11.6625 6.6875 11.6375 6.93125 11.825L8 12.625C8.4125 12.9312 9 12.6375 9 12.125V1.5C9 0.8125 9.5625 0.25 10.25 0.25H3.375ZM6.03125 7.59375H3.21875C2.9625 7.59375 2.75 7.38125 2.75 7.125C2.75 6.86875 2.9625 6.65625 3.21875 6.65625H6.03125C6.2875 6.65625 6.5 6.86875 6.5 7.125C6.5 7.38125 6.2875 7.59375 6.03125 7.59375ZM6.5 5.09375H2.75C2.49375 5.09375 2.28125 4.88125 2.28125 4.625C2.28125 4.36875 2.49375 4.15625 2.75 4.15625H6.5C6.75625 4.15625 6.96875 4.36875 6.96875 4.625C6.96875 4.88125 6.75625 5.09375 6.5 5.09375Z" fill="#1F7BF4"/>
<path d="M10.2563 1.1875C10.6688 1.1875 11.0625 1.35625 11.35 1.6375C11.65 1.94375 11.8125 2.3375 11.8125 2.75V4.2625C11.8125 4.725 11.6063 4.9375 11.1375 4.9375H9.9375V1.50625C9.9375 1.33125 10.0813 1.1875 10.2563 1.1875ZM10.2563 0.25C9.5625 0.25 9 0.8125 9 1.50625V5.875H11.1375C12.125 5.875 12.75 5.25 12.75 4.2625V2.75C12.75 2.0625 12.4688 1.4375 12.0187 0.98125C11.5494 0.516573 10.9167 0.254097 10.2563 0.25Z" fill="#1F7BF4"/>
</svg>
